%TF.GenerationSoftware,KiCad,Pcbnew,(5.1.7-0-10_14)*%
%TF.CreationDate,2020-11-09T11:56:13+00:00*%
%TF.ProjectId,STM32G031J6_Breakout,53544d33-3247-4303-9331-4a365f427265,rev?*%
%TF.SameCoordinates,Original*%
%TF.FileFunction,Legend,Bot*%
%TF.FilePolarity,Positive*%
%FSLAX46Y46*%
G04 Gerber Fmt 4.6, Leading zero omitted, Abs format (unit mm)*
G04 Created by KiCad (PCBNEW (5.1.7-0-10_14)) date 2020-11-09 11:56:13*
%MOMM*%
%LPD*%
G01*
G04 APERTURE LIST*
%ADD10C,0.150000*%
%ADD11C,0.120000*%
G04 APERTURE END LIST*
D10*
X143300285Y-99421904D02*
X143300285Y-98621904D01*
X142995523Y-98621904D01*
X142919333Y-98660000D01*
X142881238Y-98698095D01*
X142843142Y-98774285D01*
X142843142Y-98888571D01*
X142881238Y-98964761D01*
X142919333Y-99002857D01*
X142995523Y-99040952D01*
X143300285Y-99040952D01*
X142538380Y-99193333D02*
X142157428Y-99193333D01*
X142614571Y-99421904D02*
X142347904Y-98621904D01*
X142081238Y-99421904D01*
X141395523Y-99421904D02*
X141852666Y-99421904D01*
X141624095Y-99421904D02*
X141624095Y-98621904D01*
X141700285Y-98736190D01*
X141776476Y-98812380D01*
X141852666Y-98850476D01*
X141090761Y-98698095D02*
X141052666Y-98660000D01*
X140976476Y-98621904D01*
X140786000Y-98621904D01*
X140709809Y-98660000D01*
X140671714Y-98698095D01*
X140633619Y-98774285D01*
X140633619Y-98850476D01*
X140671714Y-98964761D01*
X141128857Y-99421904D01*
X140633619Y-99421904D01*
X143300333Y-101961904D02*
X143300333Y-101161904D01*
X142995571Y-101161904D01*
X142919380Y-101200000D01*
X142881285Y-101238095D01*
X142843190Y-101314285D01*
X142843190Y-101428571D01*
X142881285Y-101504761D01*
X142919380Y-101542857D01*
X142995571Y-101580952D01*
X143300333Y-101580952D01*
X142538428Y-101733333D02*
X142157476Y-101733333D01*
X142614619Y-101961904D02*
X142347952Y-101161904D01*
X142081285Y-101961904D01*
X141700333Y-101504761D02*
X141776523Y-101466666D01*
X141814619Y-101428571D01*
X141852714Y-101352380D01*
X141852714Y-101314285D01*
X141814619Y-101238095D01*
X141776523Y-101200000D01*
X141700333Y-101161904D01*
X141547952Y-101161904D01*
X141471761Y-101200000D01*
X141433666Y-101238095D01*
X141395571Y-101314285D01*
X141395571Y-101352380D01*
X141433666Y-101428571D01*
X141471761Y-101466666D01*
X141547952Y-101504761D01*
X141700333Y-101504761D01*
X141776523Y-101542857D01*
X141814619Y-101580952D01*
X141852714Y-101657142D01*
X141852714Y-101809523D01*
X141814619Y-101885714D01*
X141776523Y-101923809D01*
X141700333Y-101961904D01*
X141547952Y-101961904D01*
X141471761Y-101923809D01*
X141433666Y-101885714D01*
X141395571Y-101809523D01*
X141395571Y-101657142D01*
X141433666Y-101580952D01*
X141471761Y-101542857D01*
X141547952Y-101504761D01*
X143300285Y-97008904D02*
X143300285Y-96208904D01*
X142995523Y-96208904D01*
X142919333Y-96247000D01*
X142881238Y-96285095D01*
X142843142Y-96361285D01*
X142843142Y-96475571D01*
X142881238Y-96551761D01*
X142919333Y-96589857D01*
X142995523Y-96627952D01*
X143300285Y-96627952D01*
X142538380Y-96780333D02*
X142157428Y-96780333D01*
X142614571Y-97008904D02*
X142347904Y-96208904D01*
X142081238Y-97008904D01*
X141395523Y-97008904D02*
X141852666Y-97008904D01*
X141624095Y-97008904D02*
X141624095Y-96208904D01*
X141700285Y-96323190D01*
X141776476Y-96399380D01*
X141852666Y-96437476D01*
X141128857Y-96208904D02*
X140633619Y-96208904D01*
X140900285Y-96513666D01*
X140786000Y-96513666D01*
X140709809Y-96551761D01*
X140671714Y-96589857D01*
X140633619Y-96666047D01*
X140633619Y-96856523D01*
X140671714Y-96932714D01*
X140709809Y-96970809D01*
X140786000Y-97008904D01*
X141014571Y-97008904D01*
X141090761Y-96970809D01*
X141128857Y-96932714D01*
X143103476Y-94341904D02*
X143103476Y-93541904D01*
X142798714Y-93541904D01*
X142722523Y-93580000D01*
X142684428Y-93618095D01*
X142646333Y-93694285D01*
X142646333Y-93808571D01*
X142684428Y-93884761D01*
X142722523Y-93922857D01*
X142798714Y-93960952D01*
X143103476Y-93960952D01*
X142036809Y-93922857D02*
X141922523Y-93960952D01*
X141884428Y-93999047D01*
X141846333Y-94075238D01*
X141846333Y-94189523D01*
X141884428Y-94265714D01*
X141922523Y-94303809D01*
X141998714Y-94341904D01*
X142303476Y-94341904D01*
X142303476Y-93541904D01*
X142036809Y-93541904D01*
X141960619Y-93580000D01*
X141922523Y-93618095D01*
X141884428Y-93694285D01*
X141884428Y-93770476D01*
X141922523Y-93846666D01*
X141960619Y-93884761D01*
X142036809Y-93922857D01*
X142303476Y-93922857D01*
X141122523Y-93541904D02*
X141503476Y-93541904D01*
X141541571Y-93922857D01*
X141503476Y-93884761D01*
X141427285Y-93846666D01*
X141236809Y-93846666D01*
X141160619Y-93884761D01*
X141122523Y-93922857D01*
X141084428Y-93999047D01*
X141084428Y-94189523D01*
X141122523Y-94265714D01*
X141160619Y-94303809D01*
X141236809Y-94341904D01*
X141427285Y-94341904D01*
X141503476Y-94303809D01*
X141541571Y-94265714D01*
X133521333Y-101961904D02*
X133521333Y-101161904D01*
X133216571Y-101161904D01*
X133140380Y-101200000D01*
X133102285Y-101238095D01*
X133064190Y-101314285D01*
X133064190Y-101428571D01*
X133102285Y-101504761D01*
X133140380Y-101542857D01*
X133216571Y-101580952D01*
X133521333Y-101580952D01*
X132759428Y-101733333D02*
X132378476Y-101733333D01*
X132835619Y-101961904D02*
X132568952Y-101161904D01*
X132302285Y-101961904D01*
X131883238Y-101161904D02*
X131807047Y-101161904D01*
X131730857Y-101200000D01*
X131692761Y-101238095D01*
X131654666Y-101314285D01*
X131616571Y-101466666D01*
X131616571Y-101657142D01*
X131654666Y-101809523D01*
X131692761Y-101885714D01*
X131730857Y-101923809D01*
X131807047Y-101961904D01*
X131883238Y-101961904D01*
X131959428Y-101923809D01*
X131997523Y-101885714D01*
X132035619Y-101809523D01*
X132073714Y-101657142D01*
X132073714Y-101466666D01*
X132035619Y-101314285D01*
X131997523Y-101238095D01*
X131959428Y-101200000D01*
X131883238Y-101161904D01*
X133197523Y-98787000D02*
X133273714Y-98748904D01*
X133388000Y-98748904D01*
X133502285Y-98787000D01*
X133578476Y-98863190D01*
X133616571Y-98939380D01*
X133654666Y-99091761D01*
X133654666Y-99206047D01*
X133616571Y-99358428D01*
X133578476Y-99434619D01*
X133502285Y-99510809D01*
X133388000Y-99548904D01*
X133311809Y-99548904D01*
X133197523Y-99510809D01*
X133159428Y-99472714D01*
X133159428Y-99206047D01*
X133311809Y-99206047D01*
X132816571Y-99548904D02*
X132816571Y-98748904D01*
X132359428Y-99548904D01*
X132359428Y-98748904D01*
X131978476Y-99548904D02*
X131978476Y-98748904D01*
X131788000Y-98748904D01*
X131673714Y-98787000D01*
X131597523Y-98863190D01*
X131559428Y-98939380D01*
X131521333Y-99091761D01*
X131521333Y-99206047D01*
X131559428Y-99358428D01*
X131597523Y-99434619D01*
X131673714Y-99510809D01*
X131788000Y-99548904D01*
X131978476Y-99548904D01*
X133578476Y-96081904D02*
X133083238Y-96081904D01*
X133349904Y-96386666D01*
X133235619Y-96386666D01*
X133159428Y-96424761D01*
X133121333Y-96462857D01*
X133083238Y-96539047D01*
X133083238Y-96729523D01*
X133121333Y-96805714D01*
X133159428Y-96843809D01*
X133235619Y-96881904D01*
X133464190Y-96881904D01*
X133540380Y-96843809D01*
X133578476Y-96805714D01*
X132854666Y-96081904D02*
X132588000Y-96881904D01*
X132321333Y-96081904D01*
X132130857Y-96081904D02*
X131635619Y-96081904D01*
X131902285Y-96386666D01*
X131788000Y-96386666D01*
X131711809Y-96424761D01*
X131673714Y-96462857D01*
X131635619Y-96539047D01*
X131635619Y-96729523D01*
X131673714Y-96805714D01*
X131711809Y-96843809D01*
X131788000Y-96881904D01*
X132016571Y-96881904D01*
X132092761Y-96843809D01*
X132130857Y-96805714D01*
X133578476Y-94468904D02*
X133578476Y-93668904D01*
X133273714Y-93668904D01*
X133197523Y-93707000D01*
X133159428Y-93745095D01*
X133121333Y-93821285D01*
X133121333Y-93935571D01*
X133159428Y-94011761D01*
X133197523Y-94049857D01*
X133273714Y-94087952D01*
X133578476Y-94087952D01*
X132511809Y-94049857D02*
X132397523Y-94087952D01*
X132359428Y-94126047D01*
X132321333Y-94202238D01*
X132321333Y-94316523D01*
X132359428Y-94392714D01*
X132397523Y-94430809D01*
X132473714Y-94468904D01*
X132778476Y-94468904D01*
X132778476Y-93668904D01*
X132511809Y-93668904D01*
X132435619Y-93707000D01*
X132397523Y-93745095D01*
X132359428Y-93821285D01*
X132359428Y-93897476D01*
X132397523Y-93973666D01*
X132435619Y-94011761D01*
X132511809Y-94049857D01*
X132778476Y-94049857D01*
X132054666Y-93668904D02*
X131521333Y-93668904D01*
X131864190Y-94468904D01*
X133578476Y-90326904D02*
X133083238Y-90326904D01*
X133349904Y-90631666D01*
X133235619Y-90631666D01*
X133159428Y-90669761D01*
X133121333Y-90707857D01*
X133083238Y-90784047D01*
X133083238Y-90974523D01*
X133121333Y-91050714D01*
X133159428Y-91088809D01*
X133235619Y-91126904D01*
X133464190Y-91126904D01*
X133540380Y-91088809D01*
X133578476Y-91050714D01*
X132588000Y-90326904D02*
X132511809Y-90326904D01*
X132435619Y-90365000D01*
X132397523Y-90403095D01*
X132359428Y-90479285D01*
X132321333Y-90631666D01*
X132321333Y-90822142D01*
X132359428Y-90974523D01*
X132397523Y-91050714D01*
X132435619Y-91088809D01*
X132511809Y-91126904D01*
X132588000Y-91126904D01*
X132664190Y-91088809D01*
X132702285Y-91050714D01*
X132740380Y-90974523D01*
X132778476Y-90822142D01*
X132778476Y-90631666D01*
X132740380Y-90479285D01*
X132702285Y-90403095D01*
X132664190Y-90365000D01*
X132588000Y-90326904D01*
X132092761Y-90326904D02*
X131826095Y-91126904D01*
X131559428Y-90326904D01*
X133654666Y-91676904D02*
X133388000Y-92476904D01*
X133121333Y-91676904D01*
X132854666Y-92476904D02*
X132854666Y-91676904D01*
X132664190Y-91676904D01*
X132549904Y-91715000D01*
X132473714Y-91791190D01*
X132435619Y-91867380D01*
X132397523Y-92019761D01*
X132397523Y-92134047D01*
X132435619Y-92286428D01*
X132473714Y-92362619D01*
X132549904Y-92438809D01*
X132664190Y-92476904D01*
X132854666Y-92476904D01*
X132054666Y-92476904D02*
X132054666Y-91676904D01*
X131864190Y-91676904D01*
X131749904Y-91715000D01*
X131673714Y-91791190D01*
X131635619Y-91867380D01*
X131597523Y-92019761D01*
X131597523Y-92134047D01*
X131635619Y-92286428D01*
X131673714Y-92362619D01*
X131749904Y-92438809D01*
X131864190Y-92476904D01*
X132054666Y-92476904D01*
D11*
%TO.C,U1*%
X135955500Y-103408600D02*
X135955500Y-102478600D01*
X135955500Y-100248600D02*
X135955500Y-101178600D01*
X135955500Y-100248600D02*
X138115500Y-100248600D01*
X135955500Y-103408600D02*
X137415500Y-103408600D01*
%TO.C,SW1*%
X135127500Y-89082000D02*
X136052500Y-89082000D01*
X135127500Y-92782000D02*
X139827500Y-92782000D01*
X139927500Y-91207000D02*
X139927500Y-90657000D01*
X135027500Y-91207000D02*
X135027500Y-90657000D01*
X138902500Y-89082000D02*
X139827500Y-89082000D01*
%TO.C,C5*%
X137171165Y-94213000D02*
X137402835Y-94213000D01*
X137171165Y-93493000D02*
X137402835Y-93493000D01*
%TO.C,C4*%
X137752500Y-98182165D02*
X137752500Y-98413835D01*
X138472500Y-98182165D02*
X138472500Y-98413835D01*
%TO.C,C3*%
X136482500Y-98182165D02*
X136482500Y-98413835D01*
X137202500Y-98182165D02*
X137202500Y-98413835D01*
%TO.C,C2*%
X139615500Y-101944435D02*
X139615500Y-101712765D01*
X138895500Y-101944435D02*
X138895500Y-101712765D01*
%TO.C,C1*%
X135996000Y-98413835D02*
X135996000Y-98182165D01*
X135276000Y-98413835D02*
X135276000Y-98182165D01*
%TO.C,C5*%
D10*
X139579333Y-94138714D02*
X139617428Y-94176809D01*
X139731714Y-94214904D01*
X139807904Y-94214904D01*
X139922190Y-94176809D01*
X139998380Y-94100619D01*
X140036476Y-94024428D01*
X140074571Y-93872047D01*
X140074571Y-93757761D01*
X140036476Y-93605380D01*
X139998380Y-93529190D01*
X139922190Y-93453000D01*
X139807904Y-93414904D01*
X139731714Y-93414904D01*
X139617428Y-93453000D01*
X139579333Y-93491095D01*
X138855523Y-93414904D02*
X139236476Y-93414904D01*
X139274571Y-93795857D01*
X139236476Y-93757761D01*
X139160285Y-93719666D01*
X138969809Y-93719666D01*
X138893619Y-93757761D01*
X138855523Y-93795857D01*
X138817428Y-93872047D01*
X138817428Y-94062523D01*
X138855523Y-94138714D01*
X138893619Y-94176809D01*
X138969809Y-94214904D01*
X139160285Y-94214904D01*
X139236476Y-94176809D01*
X139274571Y-94138714D01*
%TO.C,C4*%
X138461714Y-96259666D02*
X138499809Y-96221571D01*
X138537904Y-96107285D01*
X138537904Y-96031095D01*
X138499809Y-95916809D01*
X138423619Y-95840619D01*
X138347428Y-95802523D01*
X138195047Y-95764428D01*
X138080761Y-95764428D01*
X137928380Y-95802523D01*
X137852190Y-95840619D01*
X137776000Y-95916809D01*
X137737904Y-96031095D01*
X137737904Y-96107285D01*
X137776000Y-96221571D01*
X137814095Y-96259666D01*
X138004571Y-96945380D02*
X138537904Y-96945380D01*
X137699809Y-96754904D02*
X138271238Y-96564428D01*
X138271238Y-97059666D01*
%TO.C,C3*%
X137191714Y-96259666D02*
X137229809Y-96221571D01*
X137267904Y-96107285D01*
X137267904Y-96031095D01*
X137229809Y-95916809D01*
X137153619Y-95840619D01*
X137077428Y-95802523D01*
X136925047Y-95764428D01*
X136810761Y-95764428D01*
X136658380Y-95802523D01*
X136582190Y-95840619D01*
X136506000Y-95916809D01*
X136467904Y-96031095D01*
X136467904Y-96107285D01*
X136506000Y-96221571D01*
X136544095Y-96259666D01*
X136467904Y-96526333D02*
X136467904Y-97021571D01*
X136772666Y-96754904D01*
X136772666Y-96869190D01*
X136810761Y-96945380D01*
X136848857Y-96983476D01*
X136925047Y-97021571D01*
X137115523Y-97021571D01*
X137191714Y-96983476D01*
X137229809Y-96945380D01*
X137267904Y-96869190D01*
X137267904Y-96640619D01*
X137229809Y-96564428D01*
X137191714Y-96526333D01*
%TO.C,C2*%
X139452333Y-103917714D02*
X139490428Y-103955809D01*
X139604714Y-103993904D01*
X139680904Y-103993904D01*
X139795190Y-103955809D01*
X139871380Y-103879619D01*
X139909476Y-103803428D01*
X139947571Y-103651047D01*
X139947571Y-103536761D01*
X139909476Y-103384380D01*
X139871380Y-103308190D01*
X139795190Y-103232000D01*
X139680904Y-103193904D01*
X139604714Y-103193904D01*
X139490428Y-103232000D01*
X139452333Y-103270095D01*
X139147571Y-103270095D02*
X139109476Y-103232000D01*
X139033285Y-103193904D01*
X138842809Y-103193904D01*
X138766619Y-103232000D01*
X138728523Y-103270095D01*
X138690428Y-103346285D01*
X138690428Y-103422476D01*
X138728523Y-103536761D01*
X139185666Y-103993904D01*
X138690428Y-103993904D01*
%TO.C,C1*%
X135921714Y-96259666D02*
X135959809Y-96221571D01*
X135997904Y-96107285D01*
X135997904Y-96031095D01*
X135959809Y-95916809D01*
X135883619Y-95840619D01*
X135807428Y-95802523D01*
X135655047Y-95764428D01*
X135540761Y-95764428D01*
X135388380Y-95802523D01*
X135312190Y-95840619D01*
X135236000Y-95916809D01*
X135197904Y-96031095D01*
X135197904Y-96107285D01*
X135236000Y-96221571D01*
X135274095Y-96259666D01*
X135997904Y-97021571D02*
X135997904Y-96564428D01*
X135997904Y-96793000D02*
X135197904Y-96793000D01*
X135312190Y-96716809D01*
X135388380Y-96640619D01*
X135426476Y-96564428D01*
%TD*%
M02*
