%TF.GenerationSoftware,KiCad,Pcbnew,(5.1.7-0-10_14)*%
%TF.CreationDate,2020-11-09T11:56:13+00:00*%
%TF.ProjectId,STM32G031J6_Breakout,53544d33-3247-4303-9331-4a365f427265,rev?*%
%TF.SameCoordinates,Original*%
%TF.FileFunction,Copper,L2,Bot*%
%TF.FilePolarity,Positive*%
%FSLAX46Y46*%
G04 Gerber Fmt 4.6, Leading zero omitted, Abs format (unit mm)*
G04 Created by KiCad (PCBNEW (5.1.7-0-10_14)) date 2020-11-09 11:56:13*
%MOMM*%
%LPD*%
G01*
G04 APERTURE LIST*
%TA.AperFunction,ComponentPad*%
%ADD10O,1.700000X1.700000*%
%TD*%
%TA.AperFunction,ComponentPad*%
%ADD11R,1.700000X1.700000*%
%TD*%
%TA.AperFunction,SMDPad,CuDef*%
%ADD12R,0.900000X0.800000*%
%TD*%
%TA.AperFunction,SMDPad,CuDef*%
%ADD13R,1.450000X1.000000*%
%TD*%
%TA.AperFunction,ViaPad*%
%ADD14C,0.450000*%
%TD*%
%TA.AperFunction,Conductor*%
%ADD15C,0.250000*%
%TD*%
%TA.AperFunction,Conductor*%
%ADD16C,1.000000*%
%TD*%
%TA.AperFunction,Conductor*%
%ADD17C,0.254000*%
%TD*%
%TA.AperFunction,Conductor*%
%ADD18C,0.100000*%
%TD*%
G04 APERTURE END LIST*
D10*
%TO.P,J4,4*%
%TO.N,/PA8*%
X144780000Y-101600000D03*
%TO.P,J4,3*%
%TO.N,/PA12*%
X144780000Y-99060000D03*
%TO.P,J4,2*%
%TO.N,/SWDIO*%
X144780000Y-96520000D03*
D11*
%TO.P,J4,1*%
%TO.N,/SWCLK*%
X144780000Y-93980000D03*
%TD*%
D10*
%TO.P,J1,5*%
%TO.N,/NRST*%
X130175000Y-101600000D03*
%TO.P,J1,4*%
%TO.N,GNDS*%
X130175000Y-99060000D03*
%TO.P,J1,3*%
%TO.N,+3V3*%
X130175000Y-96520000D03*
%TO.P,J1,2*%
%TO.N,/PB7*%
X130175000Y-93980000D03*
D11*
%TO.P,J1,1*%
%TO.N,/VIN*%
X130175000Y-91440000D03*
%TD*%
D12*
%TO.P,U1,3*%
%TO.N,/VIN*%
X135715500Y-101828600D03*
%TO.P,U1,2*%
%TO.N,+3V3*%
X137715500Y-102778600D03*
%TO.P,U1,1*%
%TO.N,GNDS*%
X137715500Y-100878600D03*
%TD*%
D13*
%TO.P,SW1,1*%
%TO.N,GNDS*%
X134902500Y-90082000D03*
X140052500Y-90082000D03*
%TO.P,SW1,2*%
%TO.N,/NRST*%
X140052500Y-91782000D03*
X134902500Y-91782000D03*
%TD*%
%TO.P,C5,2*%
%TO.N,GNDS*%
%TA.AperFunction,SMDPad,CuDef*%
G36*
G01*
X137487000Y-94008000D02*
X137487000Y-93698000D01*
G75*
G02*
X137642000Y-93543000I155000J0D01*
G01*
X138067000Y-93543000D01*
G75*
G02*
X138222000Y-93698000I0J-155000D01*
G01*
X138222000Y-94008000D01*
G75*
G02*
X138067000Y-94163000I-155000J0D01*
G01*
X137642000Y-94163000D01*
G75*
G02*
X137487000Y-94008000I0J155000D01*
G01*
G37*
%TD.AperFunction*%
%TO.P,C5,1*%
%TO.N,/NRST*%
%TA.AperFunction,SMDPad,CuDef*%
G36*
G01*
X136352000Y-94008000D02*
X136352000Y-93698000D01*
G75*
G02*
X136507000Y-93543000I155000J0D01*
G01*
X136932000Y-93543000D01*
G75*
G02*
X137087000Y-93698000I0J-155000D01*
G01*
X137087000Y-94008000D01*
G75*
G02*
X136932000Y-94163000I-155000J0D01*
G01*
X136507000Y-94163000D01*
G75*
G02*
X136352000Y-94008000I0J155000D01*
G01*
G37*
%TD.AperFunction*%
%TD*%
%TO.P,C4,2*%
%TO.N,GNDS*%
%TA.AperFunction,SMDPad,CuDef*%
G36*
G01*
X137957500Y-98498000D02*
X138267500Y-98498000D01*
G75*
G02*
X138422500Y-98653000I0J-155000D01*
G01*
X138422500Y-99078000D01*
G75*
G02*
X138267500Y-99233000I-155000J0D01*
G01*
X137957500Y-99233000D01*
G75*
G02*
X137802500Y-99078000I0J155000D01*
G01*
X137802500Y-98653000D01*
G75*
G02*
X137957500Y-98498000I155000J0D01*
G01*
G37*
%TD.AperFunction*%
%TO.P,C4,1*%
%TO.N,+3V3*%
%TA.AperFunction,SMDPad,CuDef*%
G36*
G01*
X137957500Y-97363000D02*
X138267500Y-97363000D01*
G75*
G02*
X138422500Y-97518000I0J-155000D01*
G01*
X138422500Y-97943000D01*
G75*
G02*
X138267500Y-98098000I-155000J0D01*
G01*
X137957500Y-98098000D01*
G75*
G02*
X137802500Y-97943000I0J155000D01*
G01*
X137802500Y-97518000D01*
G75*
G02*
X137957500Y-97363000I155000J0D01*
G01*
G37*
%TD.AperFunction*%
%TD*%
%TO.P,C3,2*%
%TO.N,GNDS*%
%TA.AperFunction,SMDPad,CuDef*%
G36*
G01*
X136687500Y-98498000D02*
X136997500Y-98498000D01*
G75*
G02*
X137152500Y-98653000I0J-155000D01*
G01*
X137152500Y-99078000D01*
G75*
G02*
X136997500Y-99233000I-155000J0D01*
G01*
X136687500Y-99233000D01*
G75*
G02*
X136532500Y-99078000I0J155000D01*
G01*
X136532500Y-98653000D01*
G75*
G02*
X136687500Y-98498000I155000J0D01*
G01*
G37*
%TD.AperFunction*%
%TO.P,C3,1*%
%TO.N,+3V3*%
%TA.AperFunction,SMDPad,CuDef*%
G36*
G01*
X136687500Y-97363000D02*
X136997500Y-97363000D01*
G75*
G02*
X137152500Y-97518000I0J-155000D01*
G01*
X137152500Y-97943000D01*
G75*
G02*
X136997500Y-98098000I-155000J0D01*
G01*
X136687500Y-98098000D01*
G75*
G02*
X136532500Y-97943000I0J155000D01*
G01*
X136532500Y-97518000D01*
G75*
G02*
X136687500Y-97363000I155000J0D01*
G01*
G37*
%TD.AperFunction*%
%TD*%
%TO.P,C2,2*%
%TO.N,GNDS*%
%TA.AperFunction,SMDPad,CuDef*%
G36*
G01*
X139410500Y-101628600D02*
X139100500Y-101628600D01*
G75*
G02*
X138945500Y-101473600I0J155000D01*
G01*
X138945500Y-101048600D01*
G75*
G02*
X139100500Y-100893600I155000J0D01*
G01*
X139410500Y-100893600D01*
G75*
G02*
X139565500Y-101048600I0J-155000D01*
G01*
X139565500Y-101473600D01*
G75*
G02*
X139410500Y-101628600I-155000J0D01*
G01*
G37*
%TD.AperFunction*%
%TO.P,C2,1*%
%TO.N,+3V3*%
%TA.AperFunction,SMDPad,CuDef*%
G36*
G01*
X139410500Y-102763600D02*
X139100500Y-102763600D01*
G75*
G02*
X138945500Y-102608600I0J155000D01*
G01*
X138945500Y-102183600D01*
G75*
G02*
X139100500Y-102028600I155000J0D01*
G01*
X139410500Y-102028600D01*
G75*
G02*
X139565500Y-102183600I0J-155000D01*
G01*
X139565500Y-102608600D01*
G75*
G02*
X139410500Y-102763600I-155000J0D01*
G01*
G37*
%TD.AperFunction*%
%TD*%
%TO.P,C1,2*%
%TO.N,GNDS*%
%TA.AperFunction,SMDPad,CuDef*%
G36*
G01*
X135791000Y-98098000D02*
X135481000Y-98098000D01*
G75*
G02*
X135326000Y-97943000I0J155000D01*
G01*
X135326000Y-97518000D01*
G75*
G02*
X135481000Y-97363000I155000J0D01*
G01*
X135791000Y-97363000D01*
G75*
G02*
X135946000Y-97518000I0J-155000D01*
G01*
X135946000Y-97943000D01*
G75*
G02*
X135791000Y-98098000I-155000J0D01*
G01*
G37*
%TD.AperFunction*%
%TO.P,C1,1*%
%TO.N,/VIN*%
%TA.AperFunction,SMDPad,CuDef*%
G36*
G01*
X135791000Y-99233000D02*
X135481000Y-99233000D01*
G75*
G02*
X135326000Y-99078000I0J155000D01*
G01*
X135326000Y-98653000D01*
G75*
G02*
X135481000Y-98498000I155000J0D01*
G01*
X135791000Y-98498000D01*
G75*
G02*
X135946000Y-98653000I0J-155000D01*
G01*
X135946000Y-99078000D01*
G75*
G02*
X135791000Y-99233000I-155000J0D01*
G01*
G37*
%TD.AperFunction*%
%TD*%
D14*
%TO.N,GNDS*%
X141757400Y-90043000D03*
X135509000Y-103377990D03*
%TO.N,+3V3*%
X136906000Y-102783458D03*
X138176012Y-96774000D03*
X131826000Y-91567000D03*
%TO.N,/NRST*%
X137185400Y-90017600D03*
X134873996Y-96012000D03*
%TO.N,/VIN*%
X135715496Y-100965000D03*
X134620000Y-98425000D03*
%TD*%
D15*
%TO.N,GNDS*%
X137715500Y-99721100D02*
X137283000Y-99288600D01*
X137715500Y-100878600D02*
X137715500Y-99721100D01*
X138873000Y-100878600D02*
X139255500Y-101261100D01*
X137715500Y-100878600D02*
X138873000Y-100878600D01*
X133985000Y-100626100D02*
X133985000Y-99949000D01*
X133985000Y-99949000D02*
X133858000Y-99822000D01*
D16*
X133985000Y-100626100D02*
X133985000Y-99822000D01*
X133223000Y-99060000D02*
X130646010Y-99060000D01*
X133985000Y-99822000D02*
X133223000Y-99060000D01*
D15*
%TO.N,+3V3*%
X138112500Y-97730500D02*
X136842500Y-97730500D01*
X138700700Y-102396100D02*
X139255500Y-102396100D01*
X138315700Y-102781100D02*
X138700700Y-102396100D01*
X137731500Y-102781100D02*
X138315700Y-102781100D01*
X137715500Y-102778600D02*
X136910858Y-102778600D01*
X136910858Y-102778600D02*
X136906000Y-102783458D01*
X138176012Y-97663012D02*
X138176012Y-96774000D01*
X138243500Y-97730500D02*
X138176012Y-97663012D01*
X131826000Y-91885198D02*
X131826000Y-91567000D01*
X130271010Y-96520000D02*
X131826000Y-94965010D01*
X131826000Y-94965010D02*
X131826000Y-91885198D01*
%TO.N,/NRST*%
X137185400Y-91821000D02*
X140052500Y-91821000D01*
X134902500Y-91821000D02*
X137185400Y-91821000D01*
X136652000Y-93853000D02*
X134902500Y-93853000D01*
X134874000Y-96011996D02*
X134873996Y-96012000D01*
X134874000Y-91821000D02*
X134874000Y-96011996D01*
X137185400Y-91821000D02*
X137185400Y-90017600D01*
%TO.N,/VIN*%
X135715500Y-100965004D02*
X135715496Y-100965000D01*
X135763000Y-100917496D02*
X135715496Y-100965000D01*
X135715500Y-101828600D02*
X135715500Y-100965004D01*
X135060500Y-98865500D02*
X134620000Y-98425000D01*
X135636000Y-98865500D02*
X135060500Y-98865500D01*
%TD*%
D17*
%TO.N,GNDS*%
X136423278Y-89610237D02*
X136358449Y-89766747D01*
X136325400Y-89932897D01*
X136325400Y-90102303D01*
X136358449Y-90268453D01*
X136423278Y-90424963D01*
X136425401Y-90428140D01*
X136425400Y-91061000D01*
X136224034Y-91061000D01*
X136217002Y-91037820D01*
X136158037Y-90927506D01*
X136078685Y-90830815D01*
X135981994Y-90751463D01*
X135871680Y-90692498D01*
X135751982Y-90656188D01*
X135627500Y-90643928D01*
X134177500Y-90643928D01*
X134053018Y-90656188D01*
X133933320Y-90692498D01*
X133823006Y-90751463D01*
X133726315Y-90830815D01*
X133646963Y-90927506D01*
X133587998Y-91037820D01*
X133551688Y-91157518D01*
X133539428Y-91282000D01*
X133539428Y-92282000D01*
X133551688Y-92406482D01*
X133587998Y-92526180D01*
X133646963Y-92636494D01*
X133726315Y-92733185D01*
X133823006Y-92812537D01*
X133933320Y-92871502D01*
X134053018Y-92907812D01*
X134114000Y-92913818D01*
X134114001Y-95601454D01*
X134111874Y-95604637D01*
X134047045Y-95761147D01*
X134013996Y-95927297D01*
X134013996Y-96096703D01*
X134047045Y-96262853D01*
X134111874Y-96419363D01*
X134205991Y-96560218D01*
X134325778Y-96680005D01*
X134466633Y-96774122D01*
X134623143Y-96838951D01*
X134789293Y-96872000D01*
X134958699Y-96872000D01*
X135124849Y-96838951D01*
X135281359Y-96774122D01*
X135422214Y-96680005D01*
X135542001Y-96560218D01*
X135636118Y-96419363D01*
X135700947Y-96262853D01*
X135733996Y-96096703D01*
X135733996Y-95927297D01*
X135700947Y-95761147D01*
X135636118Y-95604637D01*
X135634000Y-95601467D01*
X135634000Y-94613000D01*
X136000087Y-94613000D01*
X136066393Y-94667415D01*
X136203504Y-94740703D01*
X136352279Y-94785833D01*
X136507000Y-94801072D01*
X136932000Y-94801072D01*
X137086721Y-94785833D01*
X137235496Y-94740703D01*
X137372607Y-94667415D01*
X137492787Y-94568787D01*
X137591415Y-94448607D01*
X137664703Y-94311496D01*
X137709833Y-94162721D01*
X137725072Y-94008000D01*
X137725072Y-93698000D01*
X137709833Y-93543279D01*
X137664703Y-93394504D01*
X137591415Y-93257393D01*
X137492787Y-93137213D01*
X137372607Y-93038585D01*
X137235496Y-92965297D01*
X137086721Y-92920167D01*
X136932000Y-92904928D01*
X136507000Y-92904928D01*
X136352279Y-92920167D01*
X136203504Y-92965297D01*
X136066393Y-93038585D01*
X136000087Y-93093000D01*
X135634000Y-93093000D01*
X135634000Y-92919432D01*
X135751982Y-92907812D01*
X135871680Y-92871502D01*
X135981994Y-92812537D01*
X136078685Y-92733185D01*
X136158037Y-92636494D01*
X136187700Y-92581000D01*
X137148067Y-92581000D01*
X137185400Y-92584677D01*
X137222733Y-92581000D01*
X138767300Y-92581000D01*
X138796963Y-92636494D01*
X138876315Y-92733185D01*
X138973006Y-92812537D01*
X139083320Y-92871502D01*
X139203018Y-92907812D01*
X139327500Y-92920072D01*
X140777500Y-92920072D01*
X140901982Y-92907812D01*
X141021680Y-92871502D01*
X141131994Y-92812537D01*
X141228685Y-92733185D01*
X141308037Y-92636494D01*
X141367002Y-92526180D01*
X141403312Y-92406482D01*
X141415572Y-92282000D01*
X141415572Y-91282000D01*
X141403312Y-91157518D01*
X141367002Y-91037820D01*
X141308037Y-90927506D01*
X141228685Y-90830815D01*
X141131994Y-90751463D01*
X141021680Y-90692498D01*
X140901982Y-90656188D01*
X140777500Y-90643928D01*
X139327500Y-90643928D01*
X139203018Y-90656188D01*
X139083320Y-90692498D01*
X138973006Y-90751463D01*
X138876315Y-90830815D01*
X138796963Y-90927506D01*
X138737998Y-91037820D01*
X138730966Y-91061000D01*
X137945400Y-91061000D01*
X137945400Y-90428139D01*
X137947522Y-90424963D01*
X138012351Y-90268453D01*
X138045400Y-90102303D01*
X138045400Y-89932897D01*
X138012351Y-89766747D01*
X137947522Y-89610237D01*
X137913954Y-89560000D01*
X144120000Y-89560000D01*
X144120000Y-92491928D01*
X143930000Y-92491928D01*
X143805518Y-92504188D01*
X143685820Y-92540498D01*
X143575506Y-92599463D01*
X143478815Y-92678815D01*
X143399463Y-92775506D01*
X143340498Y-92885820D01*
X143304188Y-93005518D01*
X143291928Y-93130000D01*
X143291928Y-94830000D01*
X143304188Y-94954482D01*
X143340498Y-95074180D01*
X143399463Y-95184494D01*
X143478815Y-95281185D01*
X143575506Y-95360537D01*
X143685820Y-95419502D01*
X143758380Y-95441513D01*
X143626525Y-95573368D01*
X143464010Y-95816589D01*
X143352068Y-96086842D01*
X143295000Y-96373740D01*
X143295000Y-96666260D01*
X143352068Y-96953158D01*
X143464010Y-97223411D01*
X143626525Y-97466632D01*
X143833368Y-97673475D01*
X144007760Y-97790000D01*
X143833368Y-97906525D01*
X143626525Y-98113368D01*
X143464010Y-98356589D01*
X143352068Y-98626842D01*
X143295000Y-98913740D01*
X143295000Y-99206260D01*
X143352068Y-99493158D01*
X143464010Y-99763411D01*
X143626525Y-100006632D01*
X143833368Y-100213475D01*
X144007760Y-100330000D01*
X143833368Y-100446525D01*
X143626525Y-100653368D01*
X143464010Y-100896589D01*
X143352068Y-101166842D01*
X143295000Y-101453740D01*
X143295000Y-101746260D01*
X143352068Y-102033158D01*
X143464010Y-102303411D01*
X143626525Y-102546632D01*
X143833368Y-102753475D01*
X144076589Y-102915990D01*
X144120001Y-102933972D01*
X144120001Y-104115000D01*
X130835000Y-104115000D01*
X130835000Y-102933971D01*
X130878411Y-102915990D01*
X131121632Y-102753475D01*
X131328475Y-102546632D01*
X131490990Y-102303411D01*
X131602932Y-102033158D01*
X131660000Y-101746260D01*
X131660000Y-101453740D01*
X131655000Y-101428600D01*
X134627428Y-101428600D01*
X134627428Y-102228600D01*
X134639688Y-102353082D01*
X134675998Y-102472780D01*
X134734963Y-102583094D01*
X134814315Y-102679785D01*
X134911006Y-102759137D01*
X135021320Y-102818102D01*
X135141018Y-102854412D01*
X135265500Y-102866672D01*
X136046000Y-102866672D01*
X136046000Y-102868161D01*
X136079049Y-103034311D01*
X136143878Y-103190821D01*
X136237995Y-103331676D01*
X136357782Y-103451463D01*
X136498637Y-103545580D01*
X136655147Y-103610409D01*
X136821297Y-103643458D01*
X136830976Y-103643458D01*
X136911006Y-103709137D01*
X137021320Y-103768102D01*
X137141018Y-103804412D01*
X137265500Y-103816672D01*
X138165500Y-103816672D01*
X138289982Y-103804412D01*
X138409680Y-103768102D01*
X138519994Y-103709137D01*
X138616685Y-103629785D01*
X138696037Y-103533094D01*
X138755002Y-103422780D01*
X138762691Y-103397432D01*
X138821887Y-103348851D01*
X138945779Y-103386433D01*
X139100500Y-103401672D01*
X139410500Y-103401672D01*
X139565221Y-103386433D01*
X139713996Y-103341303D01*
X139851107Y-103268015D01*
X139971287Y-103169387D01*
X140069915Y-103049207D01*
X140143203Y-102912096D01*
X140188333Y-102763321D01*
X140203572Y-102608600D01*
X140203572Y-102183600D01*
X140188333Y-102028879D01*
X140143203Y-101880104D01*
X140069915Y-101742993D01*
X139971287Y-101622813D01*
X139851107Y-101524185D01*
X139713996Y-101450897D01*
X139565221Y-101405767D01*
X139410500Y-101390528D01*
X139100500Y-101390528D01*
X138945779Y-101405767D01*
X138797004Y-101450897D01*
X138659893Y-101524185D01*
X138539713Y-101622813D01*
X138509200Y-101659993D01*
X138408453Y-101690554D01*
X138291284Y-101753183D01*
X138289982Y-101752788D01*
X138165500Y-101740528D01*
X137265500Y-101740528D01*
X137141018Y-101752788D01*
X137021320Y-101789098D01*
X136911006Y-101848063D01*
X136818446Y-101924025D01*
X136803572Y-101926984D01*
X136803572Y-101428600D01*
X136791312Y-101304118D01*
X136755002Y-101184420D01*
X136696037Y-101074106D01*
X136616685Y-100977415D01*
X136575496Y-100943612D01*
X136575496Y-100880297D01*
X136542447Y-100714147D01*
X136477618Y-100557637D01*
X136383501Y-100416782D01*
X136263714Y-100296995D01*
X136122859Y-100202878D01*
X135966349Y-100138049D01*
X135800199Y-100105000D01*
X135630793Y-100105000D01*
X135464643Y-100138049D01*
X135308133Y-100202878D01*
X135167278Y-100296995D01*
X135047491Y-100416782D01*
X134953374Y-100557637D01*
X134888545Y-100714147D01*
X134855496Y-100880297D01*
X134855496Y-100943619D01*
X134814315Y-100977415D01*
X134734963Y-101074106D01*
X134675998Y-101184420D01*
X134639688Y-101304118D01*
X134627428Y-101428600D01*
X131655000Y-101428600D01*
X131602932Y-101166842D01*
X131490990Y-100896589D01*
X131328475Y-100653368D01*
X131121632Y-100446525D01*
X130878411Y-100284010D01*
X130835000Y-100266029D01*
X130835000Y-98340297D01*
X133760000Y-98340297D01*
X133760000Y-98509703D01*
X133793049Y-98675853D01*
X133857878Y-98832363D01*
X133951995Y-98973218D01*
X134071782Y-99093005D01*
X134212637Y-99187122D01*
X134369147Y-99251951D01*
X134372896Y-99252697D01*
X134496696Y-99376497D01*
X134520499Y-99405501D01*
X134593646Y-99465531D01*
X134636223Y-99500474D01*
X134768253Y-99571046D01*
X134896562Y-99609967D01*
X134920213Y-99638787D01*
X135040393Y-99737415D01*
X135177504Y-99810703D01*
X135326279Y-99855833D01*
X135481000Y-99871072D01*
X135791000Y-99871072D01*
X135945721Y-99855833D01*
X136094496Y-99810703D01*
X136231607Y-99737415D01*
X136351787Y-99638787D01*
X136450415Y-99518607D01*
X136523703Y-99381496D01*
X136568833Y-99232721D01*
X136584072Y-99078000D01*
X136584072Y-98725885D01*
X136687500Y-98736072D01*
X136997500Y-98736072D01*
X137152221Y-98720833D01*
X137300996Y-98675703D01*
X137438107Y-98602415D01*
X137477500Y-98570086D01*
X137516893Y-98602415D01*
X137654004Y-98675703D01*
X137802779Y-98720833D01*
X137957500Y-98736072D01*
X138267500Y-98736072D01*
X138422221Y-98720833D01*
X138570996Y-98675703D01*
X138708107Y-98602415D01*
X138828287Y-98503787D01*
X138926915Y-98383607D01*
X139000203Y-98246496D01*
X139045333Y-98097721D01*
X139060572Y-97943000D01*
X139060572Y-97518000D01*
X139045333Y-97363279D01*
X139000203Y-97214504D01*
X138957499Y-97134612D01*
X139002963Y-97024853D01*
X139036012Y-96858703D01*
X139036012Y-96689297D01*
X139002963Y-96523147D01*
X138938134Y-96366637D01*
X138844017Y-96225782D01*
X138724230Y-96105995D01*
X138583375Y-96011878D01*
X138426865Y-95947049D01*
X138260715Y-95914000D01*
X138091309Y-95914000D01*
X137925159Y-95947049D01*
X137768649Y-96011878D01*
X137627794Y-96105995D01*
X137508007Y-96225782D01*
X137413890Y-96366637D01*
X137349061Y-96523147D01*
X137316012Y-96689297D01*
X137316012Y-96793323D01*
X137300996Y-96785297D01*
X137152221Y-96740167D01*
X136997500Y-96724928D01*
X136687500Y-96724928D01*
X136532779Y-96740167D01*
X136384004Y-96785297D01*
X136246893Y-96858585D01*
X136126713Y-96957213D01*
X136028085Y-97077393D01*
X135954797Y-97214504D01*
X135909667Y-97363279D01*
X135894428Y-97518000D01*
X135894428Y-97870115D01*
X135791000Y-97859928D01*
X135481000Y-97859928D01*
X135326279Y-97875167D01*
X135293558Y-97885093D01*
X135288005Y-97876782D01*
X135168218Y-97756995D01*
X135027363Y-97662878D01*
X134870853Y-97598049D01*
X134704703Y-97565000D01*
X134535297Y-97565000D01*
X134369147Y-97598049D01*
X134212637Y-97662878D01*
X134071782Y-97756995D01*
X133951995Y-97876782D01*
X133857878Y-98017637D01*
X133793049Y-98174147D01*
X133760000Y-98340297D01*
X130835000Y-98340297D01*
X130835000Y-97853971D01*
X130878411Y-97835990D01*
X131121632Y-97673475D01*
X131328475Y-97466632D01*
X131490990Y-97223411D01*
X131602932Y-96953158D01*
X131660000Y-96666260D01*
X131660000Y-96373740D01*
X131632139Y-96233673D01*
X132337004Y-95528808D01*
X132366001Y-95505011D01*
X132412627Y-95448197D01*
X132460974Y-95389287D01*
X132531546Y-95257257D01*
X132547698Y-95204010D01*
X132575003Y-95113996D01*
X132586000Y-95002343D01*
X132586000Y-95002333D01*
X132589676Y-94965010D01*
X132586000Y-94927687D01*
X132586000Y-91977539D01*
X132588122Y-91974363D01*
X132652951Y-91817853D01*
X132686000Y-91651703D01*
X132686000Y-91482297D01*
X132652951Y-91316147D01*
X132588122Y-91159637D01*
X132494005Y-91018782D01*
X132374218Y-90898995D01*
X132233363Y-90804878D01*
X132076853Y-90740049D01*
X131910703Y-90707000D01*
X131741297Y-90707000D01*
X131663072Y-90722560D01*
X131663072Y-90590000D01*
X131650812Y-90465518D01*
X131614502Y-90345820D01*
X131555537Y-90235506D01*
X131476185Y-90138815D01*
X131379494Y-90059463D01*
X131269180Y-90000498D01*
X131149482Y-89964188D01*
X131025000Y-89951928D01*
X130835000Y-89951928D01*
X130835000Y-89560000D01*
X136456846Y-89560000D01*
X136423278Y-89610237D01*
%TA.AperFunction,Conductor*%
D18*
G36*
X136423278Y-89610237D02*
G01*
X136358449Y-89766747D01*
X136325400Y-89932897D01*
X136325400Y-90102303D01*
X136358449Y-90268453D01*
X136423278Y-90424963D01*
X136425401Y-90428140D01*
X136425400Y-91061000D01*
X136224034Y-91061000D01*
X136217002Y-91037820D01*
X136158037Y-90927506D01*
X136078685Y-90830815D01*
X135981994Y-90751463D01*
X135871680Y-90692498D01*
X135751982Y-90656188D01*
X135627500Y-90643928D01*
X134177500Y-90643928D01*
X134053018Y-90656188D01*
X133933320Y-90692498D01*
X133823006Y-90751463D01*
X133726315Y-90830815D01*
X133646963Y-90927506D01*
X133587998Y-91037820D01*
X133551688Y-91157518D01*
X133539428Y-91282000D01*
X133539428Y-92282000D01*
X133551688Y-92406482D01*
X133587998Y-92526180D01*
X133646963Y-92636494D01*
X133726315Y-92733185D01*
X133823006Y-92812537D01*
X133933320Y-92871502D01*
X134053018Y-92907812D01*
X134114000Y-92913818D01*
X134114001Y-95601454D01*
X134111874Y-95604637D01*
X134047045Y-95761147D01*
X134013996Y-95927297D01*
X134013996Y-96096703D01*
X134047045Y-96262853D01*
X134111874Y-96419363D01*
X134205991Y-96560218D01*
X134325778Y-96680005D01*
X134466633Y-96774122D01*
X134623143Y-96838951D01*
X134789293Y-96872000D01*
X134958699Y-96872000D01*
X135124849Y-96838951D01*
X135281359Y-96774122D01*
X135422214Y-96680005D01*
X135542001Y-96560218D01*
X135636118Y-96419363D01*
X135700947Y-96262853D01*
X135733996Y-96096703D01*
X135733996Y-95927297D01*
X135700947Y-95761147D01*
X135636118Y-95604637D01*
X135634000Y-95601467D01*
X135634000Y-94613000D01*
X136000087Y-94613000D01*
X136066393Y-94667415D01*
X136203504Y-94740703D01*
X136352279Y-94785833D01*
X136507000Y-94801072D01*
X136932000Y-94801072D01*
X137086721Y-94785833D01*
X137235496Y-94740703D01*
X137372607Y-94667415D01*
X137492787Y-94568787D01*
X137591415Y-94448607D01*
X137664703Y-94311496D01*
X137709833Y-94162721D01*
X137725072Y-94008000D01*
X137725072Y-93698000D01*
X137709833Y-93543279D01*
X137664703Y-93394504D01*
X137591415Y-93257393D01*
X137492787Y-93137213D01*
X137372607Y-93038585D01*
X137235496Y-92965297D01*
X137086721Y-92920167D01*
X136932000Y-92904928D01*
X136507000Y-92904928D01*
X136352279Y-92920167D01*
X136203504Y-92965297D01*
X136066393Y-93038585D01*
X136000087Y-93093000D01*
X135634000Y-93093000D01*
X135634000Y-92919432D01*
X135751982Y-92907812D01*
X135871680Y-92871502D01*
X135981994Y-92812537D01*
X136078685Y-92733185D01*
X136158037Y-92636494D01*
X136187700Y-92581000D01*
X137148067Y-92581000D01*
X137185400Y-92584677D01*
X137222733Y-92581000D01*
X138767300Y-92581000D01*
X138796963Y-92636494D01*
X138876315Y-92733185D01*
X138973006Y-92812537D01*
X139083320Y-92871502D01*
X139203018Y-92907812D01*
X139327500Y-92920072D01*
X140777500Y-92920072D01*
X140901982Y-92907812D01*
X141021680Y-92871502D01*
X141131994Y-92812537D01*
X141228685Y-92733185D01*
X141308037Y-92636494D01*
X141367002Y-92526180D01*
X141403312Y-92406482D01*
X141415572Y-92282000D01*
X141415572Y-91282000D01*
X141403312Y-91157518D01*
X141367002Y-91037820D01*
X141308037Y-90927506D01*
X141228685Y-90830815D01*
X141131994Y-90751463D01*
X141021680Y-90692498D01*
X140901982Y-90656188D01*
X140777500Y-90643928D01*
X139327500Y-90643928D01*
X139203018Y-90656188D01*
X139083320Y-90692498D01*
X138973006Y-90751463D01*
X138876315Y-90830815D01*
X138796963Y-90927506D01*
X138737998Y-91037820D01*
X138730966Y-91061000D01*
X137945400Y-91061000D01*
X137945400Y-90428139D01*
X137947522Y-90424963D01*
X138012351Y-90268453D01*
X138045400Y-90102303D01*
X138045400Y-89932897D01*
X138012351Y-89766747D01*
X137947522Y-89610237D01*
X137913954Y-89560000D01*
X144120000Y-89560000D01*
X144120000Y-92491928D01*
X143930000Y-92491928D01*
X143805518Y-92504188D01*
X143685820Y-92540498D01*
X143575506Y-92599463D01*
X143478815Y-92678815D01*
X143399463Y-92775506D01*
X143340498Y-92885820D01*
X143304188Y-93005518D01*
X143291928Y-93130000D01*
X143291928Y-94830000D01*
X143304188Y-94954482D01*
X143340498Y-95074180D01*
X143399463Y-95184494D01*
X143478815Y-95281185D01*
X143575506Y-95360537D01*
X143685820Y-95419502D01*
X143758380Y-95441513D01*
X143626525Y-95573368D01*
X143464010Y-95816589D01*
X143352068Y-96086842D01*
X143295000Y-96373740D01*
X143295000Y-96666260D01*
X143352068Y-96953158D01*
X143464010Y-97223411D01*
X143626525Y-97466632D01*
X143833368Y-97673475D01*
X144007760Y-97790000D01*
X143833368Y-97906525D01*
X143626525Y-98113368D01*
X143464010Y-98356589D01*
X143352068Y-98626842D01*
X143295000Y-98913740D01*
X143295000Y-99206260D01*
X143352068Y-99493158D01*
X143464010Y-99763411D01*
X143626525Y-100006632D01*
X143833368Y-100213475D01*
X144007760Y-100330000D01*
X143833368Y-100446525D01*
X143626525Y-100653368D01*
X143464010Y-100896589D01*
X143352068Y-101166842D01*
X143295000Y-101453740D01*
X143295000Y-101746260D01*
X143352068Y-102033158D01*
X143464010Y-102303411D01*
X143626525Y-102546632D01*
X143833368Y-102753475D01*
X144076589Y-102915990D01*
X144120001Y-102933972D01*
X144120001Y-104115000D01*
X130835000Y-104115000D01*
X130835000Y-102933971D01*
X130878411Y-102915990D01*
X131121632Y-102753475D01*
X131328475Y-102546632D01*
X131490990Y-102303411D01*
X131602932Y-102033158D01*
X131660000Y-101746260D01*
X131660000Y-101453740D01*
X131655000Y-101428600D01*
X134627428Y-101428600D01*
X134627428Y-102228600D01*
X134639688Y-102353082D01*
X134675998Y-102472780D01*
X134734963Y-102583094D01*
X134814315Y-102679785D01*
X134911006Y-102759137D01*
X135021320Y-102818102D01*
X135141018Y-102854412D01*
X135265500Y-102866672D01*
X136046000Y-102866672D01*
X136046000Y-102868161D01*
X136079049Y-103034311D01*
X136143878Y-103190821D01*
X136237995Y-103331676D01*
X136357782Y-103451463D01*
X136498637Y-103545580D01*
X136655147Y-103610409D01*
X136821297Y-103643458D01*
X136830976Y-103643458D01*
X136911006Y-103709137D01*
X137021320Y-103768102D01*
X137141018Y-103804412D01*
X137265500Y-103816672D01*
X138165500Y-103816672D01*
X138289982Y-103804412D01*
X138409680Y-103768102D01*
X138519994Y-103709137D01*
X138616685Y-103629785D01*
X138696037Y-103533094D01*
X138755002Y-103422780D01*
X138762691Y-103397432D01*
X138821887Y-103348851D01*
X138945779Y-103386433D01*
X139100500Y-103401672D01*
X139410500Y-103401672D01*
X139565221Y-103386433D01*
X139713996Y-103341303D01*
X139851107Y-103268015D01*
X139971287Y-103169387D01*
X140069915Y-103049207D01*
X140143203Y-102912096D01*
X140188333Y-102763321D01*
X140203572Y-102608600D01*
X140203572Y-102183600D01*
X140188333Y-102028879D01*
X140143203Y-101880104D01*
X140069915Y-101742993D01*
X139971287Y-101622813D01*
X139851107Y-101524185D01*
X139713996Y-101450897D01*
X139565221Y-101405767D01*
X139410500Y-101390528D01*
X139100500Y-101390528D01*
X138945779Y-101405767D01*
X138797004Y-101450897D01*
X138659893Y-101524185D01*
X138539713Y-101622813D01*
X138509200Y-101659993D01*
X138408453Y-101690554D01*
X138291284Y-101753183D01*
X138289982Y-101752788D01*
X138165500Y-101740528D01*
X137265500Y-101740528D01*
X137141018Y-101752788D01*
X137021320Y-101789098D01*
X136911006Y-101848063D01*
X136818446Y-101924025D01*
X136803572Y-101926984D01*
X136803572Y-101428600D01*
X136791312Y-101304118D01*
X136755002Y-101184420D01*
X136696037Y-101074106D01*
X136616685Y-100977415D01*
X136575496Y-100943612D01*
X136575496Y-100880297D01*
X136542447Y-100714147D01*
X136477618Y-100557637D01*
X136383501Y-100416782D01*
X136263714Y-100296995D01*
X136122859Y-100202878D01*
X135966349Y-100138049D01*
X135800199Y-100105000D01*
X135630793Y-100105000D01*
X135464643Y-100138049D01*
X135308133Y-100202878D01*
X135167278Y-100296995D01*
X135047491Y-100416782D01*
X134953374Y-100557637D01*
X134888545Y-100714147D01*
X134855496Y-100880297D01*
X134855496Y-100943619D01*
X134814315Y-100977415D01*
X134734963Y-101074106D01*
X134675998Y-101184420D01*
X134639688Y-101304118D01*
X134627428Y-101428600D01*
X131655000Y-101428600D01*
X131602932Y-101166842D01*
X131490990Y-100896589D01*
X131328475Y-100653368D01*
X131121632Y-100446525D01*
X130878411Y-100284010D01*
X130835000Y-100266029D01*
X130835000Y-98340297D01*
X133760000Y-98340297D01*
X133760000Y-98509703D01*
X133793049Y-98675853D01*
X133857878Y-98832363D01*
X133951995Y-98973218D01*
X134071782Y-99093005D01*
X134212637Y-99187122D01*
X134369147Y-99251951D01*
X134372896Y-99252697D01*
X134496696Y-99376497D01*
X134520499Y-99405501D01*
X134593646Y-99465531D01*
X134636223Y-99500474D01*
X134768253Y-99571046D01*
X134896562Y-99609967D01*
X134920213Y-99638787D01*
X135040393Y-99737415D01*
X135177504Y-99810703D01*
X135326279Y-99855833D01*
X135481000Y-99871072D01*
X135791000Y-99871072D01*
X135945721Y-99855833D01*
X136094496Y-99810703D01*
X136231607Y-99737415D01*
X136351787Y-99638787D01*
X136450415Y-99518607D01*
X136523703Y-99381496D01*
X136568833Y-99232721D01*
X136584072Y-99078000D01*
X136584072Y-98725885D01*
X136687500Y-98736072D01*
X136997500Y-98736072D01*
X137152221Y-98720833D01*
X137300996Y-98675703D01*
X137438107Y-98602415D01*
X137477500Y-98570086D01*
X137516893Y-98602415D01*
X137654004Y-98675703D01*
X137802779Y-98720833D01*
X137957500Y-98736072D01*
X138267500Y-98736072D01*
X138422221Y-98720833D01*
X138570996Y-98675703D01*
X138708107Y-98602415D01*
X138828287Y-98503787D01*
X138926915Y-98383607D01*
X139000203Y-98246496D01*
X139045333Y-98097721D01*
X139060572Y-97943000D01*
X139060572Y-97518000D01*
X139045333Y-97363279D01*
X139000203Y-97214504D01*
X138957499Y-97134612D01*
X139002963Y-97024853D01*
X139036012Y-96858703D01*
X139036012Y-96689297D01*
X139002963Y-96523147D01*
X138938134Y-96366637D01*
X138844017Y-96225782D01*
X138724230Y-96105995D01*
X138583375Y-96011878D01*
X138426865Y-95947049D01*
X138260715Y-95914000D01*
X138091309Y-95914000D01*
X137925159Y-95947049D01*
X137768649Y-96011878D01*
X137627794Y-96105995D01*
X137508007Y-96225782D01*
X137413890Y-96366637D01*
X137349061Y-96523147D01*
X137316012Y-96689297D01*
X137316012Y-96793323D01*
X137300996Y-96785297D01*
X137152221Y-96740167D01*
X136997500Y-96724928D01*
X136687500Y-96724928D01*
X136532779Y-96740167D01*
X136384004Y-96785297D01*
X136246893Y-96858585D01*
X136126713Y-96957213D01*
X136028085Y-97077393D01*
X135954797Y-97214504D01*
X135909667Y-97363279D01*
X135894428Y-97518000D01*
X135894428Y-97870115D01*
X135791000Y-97859928D01*
X135481000Y-97859928D01*
X135326279Y-97875167D01*
X135293558Y-97885093D01*
X135288005Y-97876782D01*
X135168218Y-97756995D01*
X135027363Y-97662878D01*
X134870853Y-97598049D01*
X134704703Y-97565000D01*
X134535297Y-97565000D01*
X134369147Y-97598049D01*
X134212637Y-97662878D01*
X134071782Y-97756995D01*
X133951995Y-97876782D01*
X133857878Y-98017637D01*
X133793049Y-98174147D01*
X133760000Y-98340297D01*
X130835000Y-98340297D01*
X130835000Y-97853971D01*
X130878411Y-97835990D01*
X131121632Y-97673475D01*
X131328475Y-97466632D01*
X131490990Y-97223411D01*
X131602932Y-96953158D01*
X131660000Y-96666260D01*
X131660000Y-96373740D01*
X131632139Y-96233673D01*
X132337004Y-95528808D01*
X132366001Y-95505011D01*
X132412627Y-95448197D01*
X132460974Y-95389287D01*
X132531546Y-95257257D01*
X132547698Y-95204010D01*
X132575003Y-95113996D01*
X132586000Y-95002343D01*
X132586000Y-95002333D01*
X132589676Y-94965010D01*
X132586000Y-94927687D01*
X132586000Y-91977539D01*
X132588122Y-91974363D01*
X132652951Y-91817853D01*
X132686000Y-91651703D01*
X132686000Y-91482297D01*
X132652951Y-91316147D01*
X132588122Y-91159637D01*
X132494005Y-91018782D01*
X132374218Y-90898995D01*
X132233363Y-90804878D01*
X132076853Y-90740049D01*
X131910703Y-90707000D01*
X131741297Y-90707000D01*
X131663072Y-90722560D01*
X131663072Y-90590000D01*
X131650812Y-90465518D01*
X131614502Y-90345820D01*
X131555537Y-90235506D01*
X131476185Y-90138815D01*
X131379494Y-90059463D01*
X131269180Y-90000498D01*
X131149482Y-89964188D01*
X131025000Y-89951928D01*
X130835000Y-89951928D01*
X130835000Y-89560000D01*
X136456846Y-89560000D01*
X136423278Y-89610237D01*
G37*
%TD.AperFunction*%
%TD*%
M02*
