%TF.GenerationSoftware,KiCad,Pcbnew,(5.1.7-0-10_14)*%
%TF.CreationDate,2020-11-09T13:54:58+00:00*%
%TF.ProjectId,STM32G031J6_Breakout,53544d33-3247-4303-9331-4a365f427265,rev?*%
%TF.SameCoordinates,Original*%
%TF.FileFunction,Legend,Top*%
%TF.FilePolarity,Positive*%
%FSLAX46Y46*%
G04 Gerber Fmt 4.6, Leading zero omitted, Abs format (unit mm)*
G04 Created by KiCad (PCBNEW (5.1.7-0-10_14)) date 2020-11-09 13:54:58*
%MOMM*%
%LPD*%
G01*
G04 APERTURE LIST*
%ADD10C,0.100000*%
%ADD11C,0.200000*%
%ADD12C,0.120000*%
G04 APERTURE END LIST*
D10*
X140811333Y-104203190D02*
X140978000Y-104703190D01*
X141144666Y-104203190D01*
X141311333Y-104703190D02*
X141311333Y-104203190D01*
X141430380Y-104203190D01*
X141501809Y-104227000D01*
X141549428Y-104274619D01*
X141573238Y-104322238D01*
X141597047Y-104417476D01*
X141597047Y-104488904D01*
X141573238Y-104584142D01*
X141549428Y-104631761D01*
X141501809Y-104679380D01*
X141430380Y-104703190D01*
X141311333Y-104703190D01*
X141811333Y-104703190D02*
X141811333Y-104203190D01*
X141930380Y-104203190D01*
X142001809Y-104227000D01*
X142049428Y-104274619D01*
X142073238Y-104322238D01*
X142097047Y-104417476D01*
X142097047Y-104488904D01*
X142073238Y-104584142D01*
X142049428Y-104631761D01*
X142001809Y-104679380D01*
X141930380Y-104703190D01*
X141811333Y-104703190D01*
X139811333Y-105053190D02*
X140120857Y-105053190D01*
X139954190Y-105243666D01*
X140025619Y-105243666D01*
X140073238Y-105267476D01*
X140097047Y-105291285D01*
X140120857Y-105338904D01*
X140120857Y-105457952D01*
X140097047Y-105505571D01*
X140073238Y-105529380D01*
X140025619Y-105553190D01*
X139882761Y-105553190D01*
X139835142Y-105529380D01*
X139811333Y-105505571D01*
X140430380Y-105053190D02*
X140478000Y-105053190D01*
X140525619Y-105077000D01*
X140549428Y-105100809D01*
X140573238Y-105148428D01*
X140597047Y-105243666D01*
X140597047Y-105362714D01*
X140573238Y-105457952D01*
X140549428Y-105505571D01*
X140525619Y-105529380D01*
X140478000Y-105553190D01*
X140430380Y-105553190D01*
X140382761Y-105529380D01*
X140358952Y-105505571D01*
X140335142Y-105457952D01*
X140311333Y-105362714D01*
X140311333Y-105243666D01*
X140335142Y-105148428D01*
X140358952Y-105100809D01*
X140382761Y-105077000D01*
X140430380Y-105053190D01*
X140739904Y-105053190D02*
X140906571Y-105553190D01*
X141073238Y-105053190D01*
X141620857Y-105553190D02*
X141620857Y-105053190D01*
X141787523Y-105410333D01*
X141954190Y-105053190D01*
X141954190Y-105553190D01*
X142168476Y-105410333D02*
X142406571Y-105410333D01*
X142120857Y-105553190D02*
X142287523Y-105053190D01*
X142454190Y-105553190D01*
X142573238Y-105053190D02*
X142906571Y-105553190D01*
X142906571Y-105053190D02*
X142573238Y-105553190D01*
X143097047Y-105505571D02*
X143120857Y-105529380D01*
X143097047Y-105553190D01*
X143073238Y-105529380D01*
X143097047Y-105505571D01*
X143097047Y-105553190D01*
X143097047Y-105362714D02*
X143073238Y-105077000D01*
X143097047Y-105053190D01*
X143120857Y-105077000D01*
X143097047Y-105362714D01*
X143097047Y-105053190D01*
X127988476Y-104254380D02*
X128059904Y-104278190D01*
X128178952Y-104278190D01*
X128226571Y-104254380D01*
X128250380Y-104230571D01*
X128274190Y-104182952D01*
X128274190Y-104135333D01*
X128250380Y-104087714D01*
X128226571Y-104063904D01*
X128178952Y-104040095D01*
X128083714Y-104016285D01*
X128036095Y-103992476D01*
X128012285Y-103968666D01*
X127988476Y-103921047D01*
X127988476Y-103873428D01*
X128012285Y-103825809D01*
X128036095Y-103802000D01*
X128083714Y-103778190D01*
X128202761Y-103778190D01*
X128274190Y-103802000D01*
X128417047Y-103778190D02*
X128702761Y-103778190D01*
X128559904Y-104278190D02*
X128559904Y-103778190D01*
X128869428Y-104278190D02*
X128869428Y-103778190D01*
X129036095Y-104135333D01*
X129202761Y-103778190D01*
X129202761Y-104278190D01*
X129393238Y-103778190D02*
X129702761Y-103778190D01*
X129536095Y-103968666D01*
X129607523Y-103968666D01*
X129655142Y-103992476D01*
X129678952Y-104016285D01*
X129702761Y-104063904D01*
X129702761Y-104182952D01*
X129678952Y-104230571D01*
X129655142Y-104254380D01*
X129607523Y-104278190D01*
X129464666Y-104278190D01*
X129417047Y-104254380D01*
X129393238Y-104230571D01*
X129893238Y-103825809D02*
X129917047Y-103802000D01*
X129964666Y-103778190D01*
X130083714Y-103778190D01*
X130131333Y-103802000D01*
X130155142Y-103825809D01*
X130178952Y-103873428D01*
X130178952Y-103921047D01*
X130155142Y-103992476D01*
X129869428Y-104278190D01*
X130178952Y-104278190D01*
X130655142Y-103802000D02*
X130607523Y-103778190D01*
X130536095Y-103778190D01*
X130464666Y-103802000D01*
X130417047Y-103849619D01*
X130393238Y-103897238D01*
X130369428Y-103992476D01*
X130369428Y-104063904D01*
X130393238Y-104159142D01*
X130417047Y-104206761D01*
X130464666Y-104254380D01*
X130536095Y-104278190D01*
X130583714Y-104278190D01*
X130655142Y-104254380D01*
X130678952Y-104230571D01*
X130678952Y-104063904D01*
X130583714Y-104063904D01*
X130988476Y-103778190D02*
X131036095Y-103778190D01*
X131083714Y-103802000D01*
X131107523Y-103825809D01*
X131131333Y-103873428D01*
X131155142Y-103968666D01*
X131155142Y-104087714D01*
X131131333Y-104182952D01*
X131107523Y-104230571D01*
X131083714Y-104254380D01*
X131036095Y-104278190D01*
X130988476Y-104278190D01*
X130940857Y-104254380D01*
X130917047Y-104230571D01*
X130893238Y-104182952D01*
X130869428Y-104087714D01*
X130869428Y-103968666D01*
X130893238Y-103873428D01*
X130917047Y-103825809D01*
X130940857Y-103802000D01*
X130988476Y-103778190D01*
X131321809Y-103778190D02*
X131631333Y-103778190D01*
X131464666Y-103968666D01*
X131536095Y-103968666D01*
X131583714Y-103992476D01*
X131607523Y-104016285D01*
X131631333Y-104063904D01*
X131631333Y-104182952D01*
X131607523Y-104230571D01*
X131583714Y-104254380D01*
X131536095Y-104278190D01*
X131393238Y-104278190D01*
X131345619Y-104254380D01*
X131321809Y-104230571D01*
X132107523Y-104278190D02*
X131821809Y-104278190D01*
X131964666Y-104278190D02*
X131964666Y-103778190D01*
X131917047Y-103849619D01*
X131869428Y-103897238D01*
X131821809Y-103921047D01*
X128571809Y-104866285D02*
X128643238Y-104890095D01*
X128667047Y-104913904D01*
X128690857Y-104961523D01*
X128690857Y-105032952D01*
X128667047Y-105080571D01*
X128643238Y-105104380D01*
X128595619Y-105128190D01*
X128405142Y-105128190D01*
X128405142Y-104628190D01*
X128571809Y-104628190D01*
X128619428Y-104652000D01*
X128643238Y-104675809D01*
X128667047Y-104723428D01*
X128667047Y-104771047D01*
X128643238Y-104818666D01*
X128619428Y-104842476D01*
X128571809Y-104866285D01*
X128405142Y-104866285D01*
X128905142Y-105128190D02*
X128905142Y-104794857D01*
X128905142Y-104890095D02*
X128928952Y-104842476D01*
X128952761Y-104818666D01*
X129000380Y-104794857D01*
X129048000Y-104794857D01*
X129405142Y-105104380D02*
X129357523Y-105128190D01*
X129262285Y-105128190D01*
X129214666Y-105104380D01*
X129190857Y-105056761D01*
X129190857Y-104866285D01*
X129214666Y-104818666D01*
X129262285Y-104794857D01*
X129357523Y-104794857D01*
X129405142Y-104818666D01*
X129428952Y-104866285D01*
X129428952Y-104913904D01*
X129190857Y-104961523D01*
X129857523Y-105128190D02*
X129857523Y-104866285D01*
X129833714Y-104818666D01*
X129786095Y-104794857D01*
X129690857Y-104794857D01*
X129643238Y-104818666D01*
X129857523Y-105104380D02*
X129809904Y-105128190D01*
X129690857Y-105128190D01*
X129643238Y-105104380D01*
X129619428Y-105056761D01*
X129619428Y-105009142D01*
X129643238Y-104961523D01*
X129690857Y-104937714D01*
X129809904Y-104937714D01*
X129857523Y-104913904D01*
X130095619Y-105128190D02*
X130095619Y-104628190D01*
X130143238Y-104937714D02*
X130286095Y-105128190D01*
X130286095Y-104794857D02*
X130095619Y-104985333D01*
X130571809Y-105128190D02*
X130524190Y-105104380D01*
X130500380Y-105080571D01*
X130476571Y-105032952D01*
X130476571Y-104890095D01*
X130500380Y-104842476D01*
X130524190Y-104818666D01*
X130571809Y-104794857D01*
X130643238Y-104794857D01*
X130690857Y-104818666D01*
X130714666Y-104842476D01*
X130738476Y-104890095D01*
X130738476Y-105032952D01*
X130714666Y-105080571D01*
X130690857Y-105104380D01*
X130643238Y-105128190D01*
X130571809Y-105128190D01*
X131167047Y-104794857D02*
X131167047Y-105128190D01*
X130952761Y-104794857D02*
X130952761Y-105056761D01*
X130976571Y-105104380D01*
X131024190Y-105128190D01*
X131095619Y-105128190D01*
X131143238Y-105104380D01*
X131167047Y-105080571D01*
X131333714Y-104794857D02*
X131524190Y-104794857D01*
X131405142Y-104628190D02*
X131405142Y-105056761D01*
X131428952Y-105104380D01*
X131476571Y-105128190D01*
X131524190Y-105128190D01*
X131690857Y-105080571D02*
X131714666Y-105104380D01*
X131690857Y-105128190D01*
X131667047Y-105104380D01*
X131690857Y-105080571D01*
X131690857Y-105128190D01*
X131690857Y-104937714D02*
X131667047Y-104652000D01*
X131690857Y-104628190D01*
X131714666Y-104652000D01*
X131690857Y-104937714D01*
X131690857Y-104628190D01*
X128440857Y-105978190D02*
X128274190Y-105740095D01*
X128155142Y-105978190D02*
X128155142Y-105478190D01*
X128345619Y-105478190D01*
X128393238Y-105502000D01*
X128417047Y-105525809D01*
X128440857Y-105573428D01*
X128440857Y-105644857D01*
X128417047Y-105692476D01*
X128393238Y-105716285D01*
X128345619Y-105740095D01*
X128155142Y-105740095D01*
X128845619Y-105954380D02*
X128798000Y-105978190D01*
X128702761Y-105978190D01*
X128655142Y-105954380D01*
X128631333Y-105906761D01*
X128631333Y-105716285D01*
X128655142Y-105668666D01*
X128702761Y-105644857D01*
X128798000Y-105644857D01*
X128845619Y-105668666D01*
X128869428Y-105716285D01*
X128869428Y-105763904D01*
X128631333Y-105811523D01*
X129036095Y-105644857D02*
X129155142Y-105978190D01*
X129274190Y-105644857D01*
X129440857Y-105835333D02*
X129678952Y-105835333D01*
X129393238Y-105978190D02*
X129559904Y-105478190D01*
X129726571Y-105978190D01*
X130488476Y-105644857D02*
X130488476Y-105978190D01*
X130369428Y-105454380D02*
X130250380Y-105811523D01*
X130559904Y-105811523D01*
X130964666Y-105478190D02*
X130869428Y-105478190D01*
X130821809Y-105502000D01*
X130798000Y-105525809D01*
X130750380Y-105597238D01*
X130726571Y-105692476D01*
X130726571Y-105882952D01*
X130750380Y-105930571D01*
X130774190Y-105954380D01*
X130821809Y-105978190D01*
X130917047Y-105978190D01*
X130964666Y-105954380D01*
X130988476Y-105930571D01*
X131012285Y-105882952D01*
X131012285Y-105763904D01*
X130988476Y-105716285D01*
X130964666Y-105692476D01*
X130917047Y-105668666D01*
X130821809Y-105668666D01*
X130774190Y-105692476D01*
X130750380Y-105716285D01*
X130726571Y-105763904D01*
X131202761Y-105525809D02*
X131226571Y-105502000D01*
X131274190Y-105478190D01*
X131393238Y-105478190D01*
X131440857Y-105502000D01*
X131464666Y-105525809D01*
X131488476Y-105573428D01*
X131488476Y-105621047D01*
X131464666Y-105692476D01*
X131178952Y-105978190D01*
X131488476Y-105978190D01*
X131798000Y-105478190D02*
X131845619Y-105478190D01*
X131893238Y-105502000D01*
X131917047Y-105525809D01*
X131940857Y-105573428D01*
X131964666Y-105668666D01*
X131964666Y-105787714D01*
X131940857Y-105882952D01*
X131917047Y-105930571D01*
X131893238Y-105954380D01*
X131845619Y-105978190D01*
X131798000Y-105978190D01*
X131750380Y-105954380D01*
X131726571Y-105930571D01*
X131702761Y-105882952D01*
X131678952Y-105787714D01*
X131678952Y-105668666D01*
X131702761Y-105573428D01*
X131726571Y-105525809D01*
X131750380Y-105502000D01*
X131798000Y-105478190D01*
X139259571Y-99286190D02*
X139259571Y-98786190D01*
X139450047Y-98786190D01*
X139497666Y-98810000D01*
X139521476Y-98833809D01*
X139545285Y-98881428D01*
X139545285Y-98952857D01*
X139521476Y-99000476D01*
X139497666Y-99024285D01*
X139450047Y-99048095D01*
X139259571Y-99048095D01*
X139735761Y-99143333D02*
X139973857Y-99143333D01*
X139688142Y-99286190D02*
X139854809Y-98786190D01*
X140021476Y-99286190D01*
X140450047Y-99286190D02*
X140164333Y-99286190D01*
X140307190Y-99286190D02*
X140307190Y-98786190D01*
X140259571Y-98857619D01*
X140211952Y-98905238D01*
X140164333Y-98929047D01*
X140640523Y-98833809D02*
X140664333Y-98810000D01*
X140711952Y-98786190D01*
X140831000Y-98786190D01*
X140878619Y-98810000D01*
X140902428Y-98833809D01*
X140926238Y-98881428D01*
X140926238Y-98929047D01*
X140902428Y-99000476D01*
X140616714Y-99286190D01*
X140926238Y-99286190D01*
D11*
X132969000Y-104965500D02*
G75*
G03*
X132969000Y-104965500I-127000J0D01*
G01*
X139827000Y-95123000D02*
G75*
G03*
X139827000Y-95123000I-127000J0D01*
G01*
D10*
X139751666Y-101826190D02*
X139751666Y-101326190D01*
X139942142Y-101326190D01*
X139989761Y-101350000D01*
X140013571Y-101373809D01*
X140037380Y-101421428D01*
X140037380Y-101492857D01*
X140013571Y-101540476D01*
X139989761Y-101564285D01*
X139942142Y-101588095D01*
X139751666Y-101588095D01*
X140227857Y-101683333D02*
X140465952Y-101683333D01*
X140180238Y-101826190D02*
X140346904Y-101326190D01*
X140513571Y-101826190D01*
X140751666Y-101540476D02*
X140704047Y-101516666D01*
X140680238Y-101492857D01*
X140656428Y-101445238D01*
X140656428Y-101421428D01*
X140680238Y-101373809D01*
X140704047Y-101350000D01*
X140751666Y-101326190D01*
X140846904Y-101326190D01*
X140894523Y-101350000D01*
X140918333Y-101373809D01*
X140942142Y-101421428D01*
X140942142Y-101445238D01*
X140918333Y-101492857D01*
X140894523Y-101516666D01*
X140846904Y-101540476D01*
X140751666Y-101540476D01*
X140704047Y-101564285D01*
X140680238Y-101588095D01*
X140656428Y-101635714D01*
X140656428Y-101730952D01*
X140680238Y-101778571D01*
X140704047Y-101802380D01*
X140751666Y-101826190D01*
X140846904Y-101826190D01*
X140894523Y-101802380D01*
X140918333Y-101778571D01*
X140942142Y-101730952D01*
X140942142Y-101635714D01*
X140918333Y-101588095D01*
X140894523Y-101564285D01*
X140846904Y-101540476D01*
X139259571Y-96746190D02*
X139259571Y-96246190D01*
X139450047Y-96246190D01*
X139497666Y-96270000D01*
X139521476Y-96293809D01*
X139545285Y-96341428D01*
X139545285Y-96412857D01*
X139521476Y-96460476D01*
X139497666Y-96484285D01*
X139450047Y-96508095D01*
X139259571Y-96508095D01*
X139735761Y-96603333D02*
X139973857Y-96603333D01*
X139688142Y-96746190D02*
X139854809Y-96246190D01*
X140021476Y-96746190D01*
X140450047Y-96746190D02*
X140164333Y-96746190D01*
X140307190Y-96746190D02*
X140307190Y-96246190D01*
X140259571Y-96317619D01*
X140211952Y-96365238D01*
X140164333Y-96389047D01*
X140616714Y-96246190D02*
X140926238Y-96246190D01*
X140759571Y-96436666D01*
X140831000Y-96436666D01*
X140878619Y-96460476D01*
X140902428Y-96484285D01*
X140926238Y-96531904D01*
X140926238Y-96650952D01*
X140902428Y-96698571D01*
X140878619Y-96722380D01*
X140831000Y-96746190D01*
X140688142Y-96746190D01*
X140640523Y-96722380D01*
X140616714Y-96698571D01*
X139588952Y-94206190D02*
X139588952Y-93706190D01*
X139779428Y-93706190D01*
X139827047Y-93730000D01*
X139850857Y-93753809D01*
X139874666Y-93801428D01*
X139874666Y-93872857D01*
X139850857Y-93920476D01*
X139827047Y-93944285D01*
X139779428Y-93968095D01*
X139588952Y-93968095D01*
X140255619Y-93944285D02*
X140327047Y-93968095D01*
X140350857Y-93991904D01*
X140374666Y-94039523D01*
X140374666Y-94110952D01*
X140350857Y-94158571D01*
X140327047Y-94182380D01*
X140279428Y-94206190D01*
X140088952Y-94206190D01*
X140088952Y-93706190D01*
X140255619Y-93706190D01*
X140303238Y-93730000D01*
X140327047Y-93753809D01*
X140350857Y-93801428D01*
X140350857Y-93849047D01*
X140327047Y-93896666D01*
X140303238Y-93920476D01*
X140255619Y-93944285D01*
X140088952Y-93944285D01*
X140827047Y-93706190D02*
X140588952Y-93706190D01*
X140565142Y-93944285D01*
X140588952Y-93920476D01*
X140636571Y-93896666D01*
X140755619Y-93896666D01*
X140803238Y-93920476D01*
X140827047Y-93944285D01*
X140850857Y-93991904D01*
X140850857Y-94110952D01*
X140827047Y-94158571D01*
X140803238Y-94182380D01*
X140755619Y-94206190D01*
X140636571Y-94206190D01*
X140588952Y-94182380D01*
X140565142Y-94158571D01*
X130734666Y-101826190D02*
X130734666Y-101326190D01*
X130925142Y-101326190D01*
X130972761Y-101350000D01*
X130996571Y-101373809D01*
X131020380Y-101421428D01*
X131020380Y-101492857D01*
X130996571Y-101540476D01*
X130972761Y-101564285D01*
X130925142Y-101588095D01*
X130734666Y-101588095D01*
X131210857Y-101683333D02*
X131448952Y-101683333D01*
X131163238Y-101826190D02*
X131329904Y-101326190D01*
X131496571Y-101826190D01*
X131758476Y-101326190D02*
X131806095Y-101326190D01*
X131853714Y-101350000D01*
X131877523Y-101373809D01*
X131901333Y-101421428D01*
X131925142Y-101516666D01*
X131925142Y-101635714D01*
X131901333Y-101730952D01*
X131877523Y-101778571D01*
X131853714Y-101802380D01*
X131806095Y-101826190D01*
X131758476Y-101826190D01*
X131710857Y-101802380D01*
X131687047Y-101778571D01*
X131663238Y-101730952D01*
X131639428Y-101635714D01*
X131639428Y-101516666D01*
X131663238Y-101421428D01*
X131687047Y-101373809D01*
X131710857Y-101350000D01*
X131758476Y-101326190D01*
X130937047Y-98810000D02*
X130889428Y-98786190D01*
X130818000Y-98786190D01*
X130746571Y-98810000D01*
X130698952Y-98857619D01*
X130675142Y-98905238D01*
X130651333Y-99000476D01*
X130651333Y-99071904D01*
X130675142Y-99167142D01*
X130698952Y-99214761D01*
X130746571Y-99262380D01*
X130818000Y-99286190D01*
X130865619Y-99286190D01*
X130937047Y-99262380D01*
X130960857Y-99238571D01*
X130960857Y-99071904D01*
X130865619Y-99071904D01*
X131175142Y-99286190D02*
X131175142Y-98786190D01*
X131460857Y-99286190D01*
X131460857Y-98786190D01*
X131698952Y-99286190D02*
X131698952Y-98786190D01*
X131818000Y-98786190D01*
X131889428Y-98810000D01*
X131937047Y-98857619D01*
X131960857Y-98905238D01*
X131984666Y-99000476D01*
X131984666Y-99071904D01*
X131960857Y-99167142D01*
X131937047Y-99214761D01*
X131889428Y-99262380D01*
X131818000Y-99286190D01*
X131698952Y-99286190D01*
X130790190Y-97139047D02*
X130790190Y-96829523D01*
X130980666Y-96996190D01*
X130980666Y-96924761D01*
X131004476Y-96877142D01*
X131028285Y-96853333D01*
X131075904Y-96829523D01*
X131194952Y-96829523D01*
X131242571Y-96853333D01*
X131266380Y-96877142D01*
X131290190Y-96924761D01*
X131290190Y-97067619D01*
X131266380Y-97115238D01*
X131242571Y-97139047D01*
X130790190Y-96686666D02*
X131290190Y-96520000D01*
X130790190Y-96353333D01*
X130790190Y-96234285D02*
X130790190Y-95924761D01*
X130980666Y-96091428D01*
X130980666Y-96020000D01*
X131004476Y-95972380D01*
X131028285Y-95948571D01*
X131075904Y-95924761D01*
X131194952Y-95924761D01*
X131242571Y-95948571D01*
X131266380Y-95972380D01*
X131290190Y-96020000D01*
X131290190Y-96162857D01*
X131266380Y-96210476D01*
X131242571Y-96234285D01*
X130698952Y-94206190D02*
X130698952Y-93706190D01*
X130889428Y-93706190D01*
X130937047Y-93730000D01*
X130960857Y-93753809D01*
X130984666Y-93801428D01*
X130984666Y-93872857D01*
X130960857Y-93920476D01*
X130937047Y-93944285D01*
X130889428Y-93968095D01*
X130698952Y-93968095D01*
X131365619Y-93944285D02*
X131437047Y-93968095D01*
X131460857Y-93991904D01*
X131484666Y-94039523D01*
X131484666Y-94110952D01*
X131460857Y-94158571D01*
X131437047Y-94182380D01*
X131389428Y-94206190D01*
X131198952Y-94206190D01*
X131198952Y-93706190D01*
X131365619Y-93706190D01*
X131413238Y-93730000D01*
X131437047Y-93753809D01*
X131460857Y-93801428D01*
X131460857Y-93849047D01*
X131437047Y-93896666D01*
X131413238Y-93920476D01*
X131365619Y-93944285D01*
X131198952Y-93944285D01*
X131651333Y-93706190D02*
X131984666Y-93706190D01*
X131770380Y-94206190D01*
X130651333Y-91166190D02*
X130818000Y-91666190D01*
X130984666Y-91166190D01*
X131151333Y-91666190D02*
X131151333Y-91166190D01*
X131270380Y-91166190D01*
X131341809Y-91190000D01*
X131389428Y-91237619D01*
X131413238Y-91285238D01*
X131437047Y-91380476D01*
X131437047Y-91451904D01*
X131413238Y-91547142D01*
X131389428Y-91594761D01*
X131341809Y-91642380D01*
X131270380Y-91666190D01*
X131151333Y-91666190D01*
X131651333Y-91666190D02*
X131651333Y-91166190D01*
X131770380Y-91166190D01*
X131841809Y-91190000D01*
X131889428Y-91237619D01*
X131913238Y-91285238D01*
X131937047Y-91380476D01*
X131937047Y-91451904D01*
X131913238Y-91547142D01*
X131889428Y-91594761D01*
X131841809Y-91642380D01*
X131770380Y-91666190D01*
X131651333Y-91666190D01*
D12*
%TO.C,J4*%
X143570000Y-95250000D02*
X143570000Y-102930000D01*
%TO.C,J1*%
X128210000Y-92710000D02*
X128210000Y-102930000D01*
X128210000Y-91440000D02*
X128210000Y-90110000D01*
X128210000Y-90110000D02*
X129540000Y-90110000D01*
%TO.C,U2*%
X139036500Y-101473000D02*
X139036500Y-98713000D01*
X139036500Y-98713000D02*
X138291500Y-98713000D01*
X139036500Y-101473000D02*
X139036500Y-104233000D01*
X139036500Y-104233000D02*
X138291500Y-104233000D01*
X132616500Y-101473000D02*
X132616500Y-98713000D01*
X132616500Y-98713000D02*
X133361500Y-98713000D01*
X132616500Y-101473000D02*
X132616500Y-104233000D01*
X132616500Y-104233000D02*
X133361500Y-104233000D01*
X133361500Y-104233000D02*
X133361500Y-105923000D01*
%TO.C,J3*%
X134061500Y-89348000D02*
X137591500Y-89348000D01*
X134061500Y-95818000D02*
X137591500Y-95818000D01*
X132736500Y-89413000D02*
X134061500Y-89413000D01*
X134061500Y-89348000D02*
X134061500Y-89413000D01*
X137591500Y-89348000D02*
X137591500Y-89413000D01*
X134061500Y-95753000D02*
X134061500Y-95818000D01*
X137591500Y-95753000D02*
X137591500Y-95818000D01*
%TD*%
M02*
