%TF.GenerationSoftware,KiCad,Pcbnew,(5.1.7-0-10_14)*%
%TF.CreationDate,2020-11-09T13:54:58+00:00*%
%TF.ProjectId,STM32G031J6_Breakout,53544d33-3247-4303-9331-4a365f427265,rev?*%
%TF.SameCoordinates,Original*%
%TF.FileFunction,Legend,Bot*%
%TF.FilePolarity,Positive*%
%FSLAX46Y46*%
G04 Gerber Fmt 4.6, Leading zero omitted, Abs format (unit mm)*
G04 Created by KiCad (PCBNEW (5.1.7-0-10_14)) date 2020-11-09 13:54:58*
%MOMM*%
%LPD*%
G01*
G04 APERTURE LIST*
%ADD10C,0.120000*%
%ADD11C,0.100000*%
G04 APERTURE END LIST*
D10*
%TO.C,U1*%
X133415500Y-102926000D02*
X133415500Y-101996000D01*
X133415500Y-99766000D02*
X133415500Y-100696000D01*
X133415500Y-99766000D02*
X135575500Y-99766000D01*
X133415500Y-102926000D02*
X134875500Y-102926000D01*
%TO.C,SW1*%
X133476500Y-89082000D02*
X134401500Y-89082000D01*
X133476500Y-92782000D02*
X138176500Y-92782000D01*
X138276500Y-91207000D02*
X138276500Y-90657000D01*
X133376500Y-91207000D02*
X133376500Y-90657000D01*
X137251500Y-89082000D02*
X138176500Y-89082000D01*
%TO.C,C5*%
X133742165Y-94213000D02*
X133973835Y-94213000D01*
X133742165Y-93493000D02*
X133973835Y-93493000D01*
%TO.C,C4*%
X139298000Y-101842835D02*
X139298000Y-101611165D01*
X138578000Y-101842835D02*
X138578000Y-101611165D01*
%TO.C,C3*%
X138155000Y-101842835D02*
X138155000Y-101611165D01*
X137435000Y-101842835D02*
X137435000Y-101611165D01*
%TO.C,C2*%
X137075500Y-101842835D02*
X137075500Y-101611165D01*
X136355500Y-101842835D02*
X136355500Y-101611165D01*
%TO.C,C1*%
X134504165Y-99293000D02*
X134735835Y-99293000D01*
X134504165Y-98573000D02*
X134735835Y-98573000D01*
%TO.C,C5*%
D11*
X135846333Y-94031571D02*
X135870142Y-94055380D01*
X135941571Y-94079190D01*
X135989190Y-94079190D01*
X136060619Y-94055380D01*
X136108238Y-94007761D01*
X136132047Y-93960142D01*
X136155857Y-93864904D01*
X136155857Y-93793476D01*
X136132047Y-93698238D01*
X136108238Y-93650619D01*
X136060619Y-93603000D01*
X135989190Y-93579190D01*
X135941571Y-93579190D01*
X135870142Y-93603000D01*
X135846333Y-93626809D01*
X135393952Y-93579190D02*
X135632047Y-93579190D01*
X135655857Y-93817285D01*
X135632047Y-93793476D01*
X135584428Y-93769666D01*
X135465380Y-93769666D01*
X135417761Y-93793476D01*
X135393952Y-93817285D01*
X135370142Y-93864904D01*
X135370142Y-93983952D01*
X135393952Y-94031571D01*
X135417761Y-94055380D01*
X135465380Y-94079190D01*
X135584428Y-94079190D01*
X135632047Y-94055380D01*
X135655857Y-94031571D01*
%TO.C,C4*%
X139053071Y-99865666D02*
X139076880Y-99841857D01*
X139100690Y-99770428D01*
X139100690Y-99722809D01*
X139076880Y-99651380D01*
X139029261Y-99603761D01*
X138981642Y-99579952D01*
X138886404Y-99556142D01*
X138814976Y-99556142D01*
X138719738Y-99579952D01*
X138672119Y-99603761D01*
X138624500Y-99651380D01*
X138600690Y-99722809D01*
X138600690Y-99770428D01*
X138624500Y-99841857D01*
X138648309Y-99865666D01*
X138767357Y-100294238D02*
X139100690Y-100294238D01*
X138576880Y-100175190D02*
X138934023Y-100056142D01*
X138934023Y-100365666D01*
%TO.C,C3*%
X138037071Y-99865666D02*
X138060880Y-99841857D01*
X138084690Y-99770428D01*
X138084690Y-99722809D01*
X138060880Y-99651380D01*
X138013261Y-99603761D01*
X137965642Y-99579952D01*
X137870404Y-99556142D01*
X137798976Y-99556142D01*
X137703738Y-99579952D01*
X137656119Y-99603761D01*
X137608500Y-99651380D01*
X137584690Y-99722809D01*
X137584690Y-99770428D01*
X137608500Y-99841857D01*
X137632309Y-99865666D01*
X137584690Y-100032333D02*
X137584690Y-100341857D01*
X137775166Y-100175190D01*
X137775166Y-100246619D01*
X137798976Y-100294238D01*
X137822785Y-100318047D01*
X137870404Y-100341857D01*
X137989452Y-100341857D01*
X138037071Y-100318047D01*
X138060880Y-100294238D01*
X138084690Y-100246619D01*
X138084690Y-100103761D01*
X138060880Y-100056142D01*
X138037071Y-100032333D01*
%TO.C,C2*%
X136894071Y-99865666D02*
X136917880Y-99841857D01*
X136941690Y-99770428D01*
X136941690Y-99722809D01*
X136917880Y-99651380D01*
X136870261Y-99603761D01*
X136822642Y-99579952D01*
X136727404Y-99556142D01*
X136655976Y-99556142D01*
X136560738Y-99579952D01*
X136513119Y-99603761D01*
X136465500Y-99651380D01*
X136441690Y-99722809D01*
X136441690Y-99770428D01*
X136465500Y-99841857D01*
X136489309Y-99865666D01*
X136489309Y-100056142D02*
X136465500Y-100079952D01*
X136441690Y-100127571D01*
X136441690Y-100246619D01*
X136465500Y-100294238D01*
X136489309Y-100318047D01*
X136536928Y-100341857D01*
X136584547Y-100341857D01*
X136655976Y-100318047D01*
X136941690Y-100032333D01*
X136941690Y-100341857D01*
%TO.C,C1*%
X134703333Y-98222571D02*
X134727142Y-98246380D01*
X134798571Y-98270190D01*
X134846190Y-98270190D01*
X134917619Y-98246380D01*
X134965238Y-98198761D01*
X134989047Y-98151142D01*
X135012857Y-98055904D01*
X135012857Y-97984476D01*
X134989047Y-97889238D01*
X134965238Y-97841619D01*
X134917619Y-97794000D01*
X134846190Y-97770190D01*
X134798571Y-97770190D01*
X134727142Y-97794000D01*
X134703333Y-97817809D01*
X134227142Y-98270190D02*
X134512857Y-98270190D01*
X134370000Y-98270190D02*
X134370000Y-97770190D01*
X134417619Y-97841619D01*
X134465238Y-97889238D01*
X134512857Y-97913047D01*
%TD*%
M02*
