%TF.GenerationSoftware,KiCad,Pcbnew,(5.1.7-0-10_14)*%
%TF.CreationDate,2020-11-09T13:54:58+00:00*%
%TF.ProjectId,STM32G031J6_Breakout,53544d33-3247-4303-9331-4a365f427265,rev?*%
%TF.SameCoordinates,Original*%
%TF.FileFunction,Copper,L1,Top*%
%TF.FilePolarity,Positive*%
%FSLAX46Y46*%
G04 Gerber Fmt 4.6, Leading zero omitted, Abs format (unit mm)*
G04 Created by KiCad (PCBNEW (5.1.7-0-10_14)) date 2020-11-09 13:54:58*
%MOMM*%
%LPD*%
G01*
G04 APERTURE LIST*
%TA.AperFunction,ComponentPad*%
%ADD10O,1.700000X1.700000*%
%TD*%
%TA.AperFunction,ComponentPad*%
%ADD11R,1.700000X1.700000*%
%TD*%
%TA.AperFunction,SMDPad,CuDef*%
%ADD12R,2.400000X0.740000*%
%TD*%
%TA.AperFunction,ViaPad*%
%ADD13C,0.450000*%
%TD*%
%TA.AperFunction,Conductor*%
%ADD14C,0.250000*%
%TD*%
%TA.AperFunction,Conductor*%
%ADD15C,0.127000*%
%TD*%
G04 APERTURE END LIST*
D10*
%TO.P,J4,4*%
%TO.N,/PA8*%
X142240000Y-101600000D03*
%TO.P,J4,3*%
%TO.N,/PA12*%
X142240000Y-99060000D03*
%TO.P,J4,2*%
%TO.N,/SWDIO*%
X142240000Y-96520000D03*
D11*
%TO.P,J4,1*%
%TO.N,/SWCLK*%
X142240000Y-93980000D03*
%TD*%
D10*
%TO.P,J1,5*%
%TO.N,/NRST*%
X129540000Y-101600000D03*
%TO.P,J1,4*%
%TO.N,GNDS*%
X129540000Y-99060000D03*
%TO.P,J1,3*%
%TO.N,+3V3*%
X129540000Y-96520000D03*
%TO.P,J1,2*%
%TO.N,/PB7*%
X129540000Y-93980000D03*
D11*
%TO.P,J1,1*%
%TO.N,/VIN*%
X129540000Y-91440000D03*
%TD*%
%TO.P,U2,8*%
%TO.N,/SWCLK*%
%TA.AperFunction,SMDPad,CuDef*%
G36*
G01*
X134071500Y-98923000D02*
X133771500Y-98923000D01*
G75*
G02*
X133621500Y-98773000I0J150000D01*
G01*
X133621500Y-97173000D01*
G75*
G02*
X133771500Y-97023000I150000J0D01*
G01*
X134071500Y-97023000D01*
G75*
G02*
X134221500Y-97173000I0J-150000D01*
G01*
X134221500Y-98773000D01*
G75*
G02*
X134071500Y-98923000I-150000J0D01*
G01*
G37*
%TD.AperFunction*%
%TO.P,U2,7*%
%TO.N,/SWDIO*%
%TA.AperFunction,SMDPad,CuDef*%
G36*
G01*
X135341500Y-98923000D02*
X135041500Y-98923000D01*
G75*
G02*
X134891500Y-98773000I0J150000D01*
G01*
X134891500Y-97173000D01*
G75*
G02*
X135041500Y-97023000I150000J0D01*
G01*
X135341500Y-97023000D01*
G75*
G02*
X135491500Y-97173000I0J-150000D01*
G01*
X135491500Y-98773000D01*
G75*
G02*
X135341500Y-98923000I-150000J0D01*
G01*
G37*
%TD.AperFunction*%
%TO.P,U2,6*%
%TO.N,/PA12*%
%TA.AperFunction,SMDPad,CuDef*%
G36*
G01*
X136611500Y-98923000D02*
X136311500Y-98923000D01*
G75*
G02*
X136161500Y-98773000I0J150000D01*
G01*
X136161500Y-97173000D01*
G75*
G02*
X136311500Y-97023000I150000J0D01*
G01*
X136611500Y-97023000D01*
G75*
G02*
X136761500Y-97173000I0J-150000D01*
G01*
X136761500Y-98773000D01*
G75*
G02*
X136611500Y-98923000I-150000J0D01*
G01*
G37*
%TD.AperFunction*%
%TO.P,U2,5*%
%TO.N,/PA8*%
%TA.AperFunction,SMDPad,CuDef*%
G36*
G01*
X137881500Y-98923000D02*
X137581500Y-98923000D01*
G75*
G02*
X137431500Y-98773000I0J150000D01*
G01*
X137431500Y-97173000D01*
G75*
G02*
X137581500Y-97023000I150000J0D01*
G01*
X137881500Y-97023000D01*
G75*
G02*
X138031500Y-97173000I0J-150000D01*
G01*
X138031500Y-98773000D01*
G75*
G02*
X137881500Y-98923000I-150000J0D01*
G01*
G37*
%TD.AperFunction*%
%TO.P,U2,4*%
%TO.N,/NRST*%
%TA.AperFunction,SMDPad,CuDef*%
G36*
G01*
X137881500Y-105923000D02*
X137581500Y-105923000D01*
G75*
G02*
X137431500Y-105773000I0J150000D01*
G01*
X137431500Y-104173000D01*
G75*
G02*
X137581500Y-104023000I150000J0D01*
G01*
X137881500Y-104023000D01*
G75*
G02*
X138031500Y-104173000I0J-150000D01*
G01*
X138031500Y-105773000D01*
G75*
G02*
X137881500Y-105923000I-150000J0D01*
G01*
G37*
%TD.AperFunction*%
%TO.P,U2,3*%
%TO.N,GNDS*%
%TA.AperFunction,SMDPad,CuDef*%
G36*
G01*
X136611500Y-105923000D02*
X136311500Y-105923000D01*
G75*
G02*
X136161500Y-105773000I0J150000D01*
G01*
X136161500Y-104173000D01*
G75*
G02*
X136311500Y-104023000I150000J0D01*
G01*
X136611500Y-104023000D01*
G75*
G02*
X136761500Y-104173000I0J-150000D01*
G01*
X136761500Y-105773000D01*
G75*
G02*
X136611500Y-105923000I-150000J0D01*
G01*
G37*
%TD.AperFunction*%
%TO.P,U2,2*%
%TO.N,+3V3*%
%TA.AperFunction,SMDPad,CuDef*%
G36*
G01*
X135341500Y-105923000D02*
X135041500Y-105923000D01*
G75*
G02*
X134891500Y-105773000I0J150000D01*
G01*
X134891500Y-104173000D01*
G75*
G02*
X135041500Y-104023000I150000J0D01*
G01*
X135341500Y-104023000D01*
G75*
G02*
X135491500Y-104173000I0J-150000D01*
G01*
X135491500Y-105773000D01*
G75*
G02*
X135341500Y-105923000I-150000J0D01*
G01*
G37*
%TD.AperFunction*%
%TO.P,U2,1*%
%TO.N,/PB7*%
%TA.AperFunction,SMDPad,CuDef*%
G36*
G01*
X134071500Y-105923000D02*
X133771500Y-105923000D01*
G75*
G02*
X133621500Y-105773000I0J150000D01*
G01*
X133621500Y-104173000D01*
G75*
G02*
X133771500Y-104023000I150000J0D01*
G01*
X134071500Y-104023000D01*
G75*
G02*
X134221500Y-104173000I0J-150000D01*
G01*
X134221500Y-105773000D01*
G75*
G02*
X134071500Y-105923000I-150000J0D01*
G01*
G37*
%TD.AperFunction*%
%TD*%
D12*
%TO.P,J3,10*%
%TO.N,/NRST*%
X137776500Y-95123000D03*
%TO.P,J3,9*%
%TO.N,GNDS*%
X133876500Y-95123000D03*
%TO.P,J3,8*%
%TO.N,Net-(J3-Pad8)*%
X137776500Y-93853000D03*
%TO.P,J3,7*%
%TO.N,Net-(J3-Pad7)*%
X133876500Y-93853000D03*
%TO.P,J3,6*%
%TO.N,Net-(J3-Pad6)*%
X137776500Y-92583000D03*
%TO.P,J3,5*%
%TO.N,GNDS*%
X133876500Y-92583000D03*
%TO.P,J3,4*%
%TO.N,/SWCLK*%
X137776500Y-91313000D03*
%TO.P,J3,3*%
%TO.N,GNDS*%
X133876500Y-91313000D03*
%TO.P,J3,2*%
%TO.N,/SWDIO*%
X137776500Y-90043000D03*
%TO.P,J3,1*%
%TO.N,+3V3*%
X133876500Y-90043000D03*
%TD*%
D13*
%TO.N,GNDS*%
X135255000Y-95123000D03*
X135890000Y-90932000D03*
X136461506Y-103759000D03*
%TO.N,+3V3*%
X135191500Y-103314500D03*
X131699000Y-96520000D03*
%TO.N,/NRST*%
X139954000Y-92202000D03*
%TO.N,/VIN*%
X134112000Y-101346000D03*
X133223000Y-98933000D03*
%TD*%
D14*
%TO.N,/NRST*%
X129540000Y-101600000D02*
X129540000Y-105410000D01*
X137731500Y-105923000D02*
X137731500Y-104973000D01*
X137406490Y-106248010D02*
X137731500Y-105923000D01*
X130378010Y-106248010D02*
X137406490Y-106248010D01*
X129540000Y-105410000D02*
X130378010Y-106248010D01*
%TO.N,GNDS*%
X133900001Y-95146501D02*
X133876500Y-95123000D01*
X133876500Y-91313000D02*
X133876500Y-92583000D01*
X133876500Y-95123000D02*
X135255000Y-95123000D01*
X133876500Y-91313000D02*
X135509000Y-91313000D01*
X135509000Y-91313000D02*
X135890000Y-90932000D01*
X136461500Y-104973000D02*
X136461500Y-103759006D01*
X136461500Y-103759006D02*
X136461506Y-103759000D01*
%TO.N,+3V3*%
X135191500Y-104973000D02*
X135191500Y-103314500D01*
X133143501Y-89310001D02*
X133876500Y-90043000D01*
X128016000Y-89916000D02*
X128621999Y-89310001D01*
X128016000Y-96266000D02*
X128016000Y-89916000D01*
X129413000Y-96520000D02*
X128270000Y-96520000D01*
X128621999Y-89310001D02*
X133143501Y-89310001D01*
X128270000Y-96520000D02*
X128016000Y-96266000D01*
X131699000Y-101790500D02*
X131699000Y-96520000D01*
X133223000Y-103314500D02*
X131699000Y-101790500D01*
X135191500Y-103314500D02*
X133223000Y-103314500D01*
%TO.N,/NRST*%
X137776500Y-95123000D02*
X139573000Y-95123000D01*
X139573000Y-95123000D02*
X139954000Y-94742000D01*
X139954000Y-94742000D02*
X139954000Y-92202000D01*
%TO.N,/PB7*%
X132024000Y-104973000D02*
X133921500Y-104973000D01*
X131064000Y-94742000D02*
X131064000Y-104013000D01*
X130302000Y-93980000D02*
X131064000Y-94742000D01*
X131064000Y-104013000D02*
X132024000Y-104973000D01*
X129540000Y-93980000D02*
X130302000Y-93980000D01*
%TO.N,/SWCLK*%
X137776500Y-91313000D02*
X140843000Y-91313000D01*
X142240000Y-92710000D02*
X142240000Y-93980000D01*
X140843000Y-91313000D02*
X142240000Y-92710000D01*
X140335000Y-95885000D02*
X142240000Y-93980000D01*
X134493000Y-95885000D02*
X140335000Y-95885000D01*
X133921500Y-96456500D02*
X134493000Y-95885000D01*
X133921500Y-97973000D02*
X133921500Y-96456500D01*
%TO.N,/SWDIO*%
X140589000Y-96266000D02*
X140843000Y-96520000D01*
X135191500Y-96583500D02*
X135509000Y-96266000D01*
X140843000Y-96520000D02*
X142240000Y-96520000D01*
X135509000Y-96266000D02*
X140589000Y-96266000D01*
X135191500Y-97973000D02*
X135191500Y-96583500D01*
X143764000Y-92202000D02*
X143764000Y-96520000D01*
X143764000Y-96520000D02*
X142240000Y-96520000D01*
X141605000Y-90043000D02*
X143764000Y-92202000D01*
X137776500Y-90043000D02*
X141605000Y-90043000D01*
%TO.N,/PA8*%
X140081000Y-101600000D02*
X142240000Y-101600000D01*
X137731500Y-99250500D02*
X140081000Y-101600000D01*
X137731500Y-97973000D02*
X137731500Y-99250500D01*
D15*
%TO.N,/PA12*%
X136461500Y-97973000D02*
X136461500Y-97853500D01*
D14*
X136652000Y-96647000D02*
X139827000Y-96647000D01*
X136461500Y-96837500D02*
X136652000Y-96647000D01*
X139827000Y-96647000D02*
X142240000Y-99060000D01*
X136461500Y-97973000D02*
X136461500Y-96837500D01*
%TO.N,/VIN*%
X133223000Y-101346000D02*
X134112000Y-101346000D01*
X132363001Y-100486001D02*
X133223000Y-101346000D01*
X132461000Y-98933000D02*
X132363001Y-99030999D01*
X133223000Y-98933000D02*
X132461000Y-98933000D01*
X132363001Y-99030999D02*
X132363001Y-100486001D01*
X132363001Y-96041001D02*
X132363001Y-99030999D01*
X131826000Y-95504000D02*
X132363001Y-96041001D01*
X131826000Y-93726000D02*
X131826000Y-95504000D01*
X129667000Y-91567000D02*
X131826000Y-93726000D01*
X129667000Y-91440000D02*
X129667000Y-91567000D01*
%TD*%
M02*
