%TF.GenerationSoftware,KiCad,Pcbnew,(5.1.7-0-10_14)*%
%TF.CreationDate,2020-11-09T13:54:58+00:00*%
%TF.ProjectId,STM32G031J6_Breakout,53544d33-3247-4303-9331-4a365f427265,rev?*%
%TF.SameCoordinates,Original*%
%TF.FileFunction,Soldermask,Top*%
%TF.FilePolarity,Negative*%
%FSLAX46Y46*%
G04 Gerber Fmt 4.6, Leading zero omitted, Abs format (unit mm)*
G04 Created by KiCad (PCBNEW (5.1.7-0-10_14)) date 2020-11-09 13:54:58*
%MOMM*%
%LPD*%
G01*
G04 APERTURE LIST*
%ADD10O,1.700000X1.700000*%
%ADD11R,1.700000X1.700000*%
%ADD12R,2.400000X0.740000*%
G04 APERTURE END LIST*
D10*
%TO.C,J4*%
X142240000Y-101600000D03*
X142240000Y-99060000D03*
X142240000Y-96520000D03*
D11*
X142240000Y-93980000D03*
%TD*%
D10*
%TO.C,J1*%
X129540000Y-101600000D03*
X129540000Y-99060000D03*
X129540000Y-96520000D03*
X129540000Y-93980000D03*
D11*
X129540000Y-91440000D03*
%TD*%
%TO.C,U2*%
G36*
G01*
X134071500Y-98923000D02*
X133771500Y-98923000D01*
G75*
G02*
X133621500Y-98773000I0J150000D01*
G01*
X133621500Y-97173000D01*
G75*
G02*
X133771500Y-97023000I150000J0D01*
G01*
X134071500Y-97023000D01*
G75*
G02*
X134221500Y-97173000I0J-150000D01*
G01*
X134221500Y-98773000D01*
G75*
G02*
X134071500Y-98923000I-150000J0D01*
G01*
G37*
G36*
G01*
X135341500Y-98923000D02*
X135041500Y-98923000D01*
G75*
G02*
X134891500Y-98773000I0J150000D01*
G01*
X134891500Y-97173000D01*
G75*
G02*
X135041500Y-97023000I150000J0D01*
G01*
X135341500Y-97023000D01*
G75*
G02*
X135491500Y-97173000I0J-150000D01*
G01*
X135491500Y-98773000D01*
G75*
G02*
X135341500Y-98923000I-150000J0D01*
G01*
G37*
G36*
G01*
X136611500Y-98923000D02*
X136311500Y-98923000D01*
G75*
G02*
X136161500Y-98773000I0J150000D01*
G01*
X136161500Y-97173000D01*
G75*
G02*
X136311500Y-97023000I150000J0D01*
G01*
X136611500Y-97023000D01*
G75*
G02*
X136761500Y-97173000I0J-150000D01*
G01*
X136761500Y-98773000D01*
G75*
G02*
X136611500Y-98923000I-150000J0D01*
G01*
G37*
G36*
G01*
X137881500Y-98923000D02*
X137581500Y-98923000D01*
G75*
G02*
X137431500Y-98773000I0J150000D01*
G01*
X137431500Y-97173000D01*
G75*
G02*
X137581500Y-97023000I150000J0D01*
G01*
X137881500Y-97023000D01*
G75*
G02*
X138031500Y-97173000I0J-150000D01*
G01*
X138031500Y-98773000D01*
G75*
G02*
X137881500Y-98923000I-150000J0D01*
G01*
G37*
G36*
G01*
X137881500Y-105923000D02*
X137581500Y-105923000D01*
G75*
G02*
X137431500Y-105773000I0J150000D01*
G01*
X137431500Y-104173000D01*
G75*
G02*
X137581500Y-104023000I150000J0D01*
G01*
X137881500Y-104023000D01*
G75*
G02*
X138031500Y-104173000I0J-150000D01*
G01*
X138031500Y-105773000D01*
G75*
G02*
X137881500Y-105923000I-150000J0D01*
G01*
G37*
G36*
G01*
X136611500Y-105923000D02*
X136311500Y-105923000D01*
G75*
G02*
X136161500Y-105773000I0J150000D01*
G01*
X136161500Y-104173000D01*
G75*
G02*
X136311500Y-104023000I150000J0D01*
G01*
X136611500Y-104023000D01*
G75*
G02*
X136761500Y-104173000I0J-150000D01*
G01*
X136761500Y-105773000D01*
G75*
G02*
X136611500Y-105923000I-150000J0D01*
G01*
G37*
G36*
G01*
X135341500Y-105923000D02*
X135041500Y-105923000D01*
G75*
G02*
X134891500Y-105773000I0J150000D01*
G01*
X134891500Y-104173000D01*
G75*
G02*
X135041500Y-104023000I150000J0D01*
G01*
X135341500Y-104023000D01*
G75*
G02*
X135491500Y-104173000I0J-150000D01*
G01*
X135491500Y-105773000D01*
G75*
G02*
X135341500Y-105923000I-150000J0D01*
G01*
G37*
G36*
G01*
X134071500Y-105923000D02*
X133771500Y-105923000D01*
G75*
G02*
X133621500Y-105773000I0J150000D01*
G01*
X133621500Y-104173000D01*
G75*
G02*
X133771500Y-104023000I150000J0D01*
G01*
X134071500Y-104023000D01*
G75*
G02*
X134221500Y-104173000I0J-150000D01*
G01*
X134221500Y-105773000D01*
G75*
G02*
X134071500Y-105923000I-150000J0D01*
G01*
G37*
%TD*%
D12*
%TO.C,J3*%
X137776500Y-95123000D03*
X133876500Y-95123000D03*
X137776500Y-93853000D03*
X133876500Y-93853000D03*
X137776500Y-92583000D03*
X133876500Y-92583000D03*
X137776500Y-91313000D03*
X133876500Y-91313000D03*
X137776500Y-90043000D03*
X133876500Y-90043000D03*
%TD*%
M02*
